<svg xmlns="http://www.w3.org/2000/svg" xmlns:xlink="http://www.w3.org/1999/xlink" height="7830" width="135"><svg xmlns="http://www.w3.org/2000/svg" xmlns:xlink="http://www.w3.org/1999/xlink" width="135" height="135"><g fill="none" fill-rule="evenodd"><path d="M66.776 108c19.207 0 34.776-16.009 34.776-35.756C101.552 52.496 85.982 23 66.776 23 47.57 23 32 52.496 32 72.244 32 91.99 47.57 108 66.776 108z" fill="#FFB100"/><path d="M35.18 54.86c2.966-8.704 7.839-17.275 13.893-23.331a14.509 14.509 0 013.44 9.426c0 7.915-6.242 14.332-13.942 14.332-1.17 0-2.306-.148-3.391-.427zm46.367-25.986c8.256 6.711 14.738 18.219 17.897 29.427-3.044 2.836-7.082 4.563-11.514 4.563-9.47 0-17.147-7.891-17.147-17.626 0-7.415 4.455-13.76 10.764-16.364zM95.242 92.79c-5.345 7.814-13.657 13.328-23.253 14.811a14.655 14.655 0 01-.886-5.037c0-7.915 6.243-14.331 13.943-14.331 4.025 0 7.651 1.752 10.196 4.556z" fill="#F89700"/><ellipse fill="#F89700" cx="53.795" cy="80.655" rx="12.18" ry="12.519"/></g></svg><svg xmlns="http://www.w3.org/2000/svg" xmlns:xlink="http://www.w3.org/1999/xlink" y="135" width="135" height="135"><g fill="none" fill-rule="evenodd"><path d="M39.144 72.488l14.61-6.485a2.084 2.084 0 011.835.071L84.935 81.93c.553.298 1.21.332 1.79.09l13.6-5.652c.036.663.053 1.316.053 1.958 0 18.573-14.7 33.63-32.832 33.63s-32.832-15.057-32.832-33.63c0-.298.004-.599.012-.901l-.02.022c.05-2.963.106-5.192.166-6.687.046-1.133.114-2.334.205-3.603.199-18.033 9.96-41.193 25.67-43.682 17.91-2.836 36.768 22.265 39.674 40.61l.039.25-14.545 5.346a3.126 3.126 0 01-2.23-.029L54.893 58.238a3.126 3.126 0 00-3.128.484l-1.107.903-11.514 12.863z" fill="#FFB100"/><path d="M94.42 97.65c-5.046 7.35-12.893 12.536-21.953 13.93a13.737 13.737 0 01-.836-4.737c0-7.444 5.894-13.479 13.163-13.479 3.8 0 7.224 1.649 9.626 4.286z" fill="#F89700"/><ellipse fill="#F89700" cx="55.291" cy="86.237" rx="11.499" ry="11.775"/><path d="M35.973 57.738c1.485-8.524 4.768-17.205 9.522-23.725a13.615 13.615 0 014.595 8.249c1.164 7.352-3.712 14.235-10.893 15.372-1.09.173-2.17.203-3.224.104zm39.412-30.987c8.686 5.015 16.423 14.747 21.018 24.693-2.42 3.083-5.932 5.285-10.064 5.94-8.831 1.398-17.15-4.799-18.583-13.842-1.091-6.888 2.13-13.441 7.63-16.791z" fill="#F89700"/></g></svg><svg xmlns="http://www.w3.org/2000/svg" xmlns:xlink="http://www.w3.org/1999/xlink" y="270" width="135" height="135"><g fill="none" fill-rule="evenodd"><rect fill="#F89700" x="33" y="80" width="71" height="17" rx="4.668"/><rect fill="#FFB100" x="37" y="97" width="63" height="10" rx="4.668"/><path d="M72.593 89.704L92 80H44l19.407 9.704a10.27 10.27 0 009.186 0z" fill="#FFB100"/><path d="M35.842 66.545l4.448.743a7.69 7.69 0 006.826-2.27 14.343 14.343 0 0117.6-2.473 3.343 3.343 0 004.102-.577 14.343 14.343 0 0117.6-2.473 7.69 7.69 0 007.187.3l4.07-1.94a5.5 5.5 0 014.735 9.929l-4.07 1.94a18.69 18.69 0 01-17.469-.73 3.343 3.343 0 00-4.102.576 14.343 14.343 0 01-17.6 2.474 3.343 3.343 0 00-4.103.576 18.69 18.69 0 01-16.59 5.518l-4.448-.744a5.5 5.5 0 011.814-10.85z" fill="#F89700" fill-rule="nonzero"/><path d="M42.89 29.512l39.285-5.521c7.67-1.078 14.763 4.266 15.84 11.937l1.303 9.266a4.668 4.668 0 01-3.973 5.273l-57.818 8.126a4.668 4.668 0 01-5.273-3.974l-1.302-9.266c-1.078-7.67 4.266-14.763 11.937-15.841z" fill="#FFB100"/><path d="M47.367 34.557l6.404-.9a1.868 1.868 0 11.52 3.7l-6.404.9a1.868 1.868 0 11-.52-3.7zm25.723-3.615l6.405-.9a1.868 1.868 0 11.52 3.7l-6.405.9a1.868 1.868 0 11-.52-3.7zm-11.952 8.284l6.405-.9a1.868 1.868 0 11.52 3.7l-6.405.9a1.868 1.868 0 01-.52-3.7z" fill="#FFD300"/></g></svg><svg xmlns="http://www.w3.org/2000/svg" xmlns:xlink="http://www.w3.org/1999/xlink" y="405" width="135" height="135"><g fill="none" fill-rule="evenodd"><path d="M31 48h72" stroke="#FA9F00" stroke-width="4" stroke-linecap="round" stroke-linejoin="round"/><path d="M95.92 40.402l-.198 58.814a3.391 3.391 0 01-3.38 3.38l-50.94.17A3.391 3.391 0 0138 99.365l.198-58.813a3.391 3.391 0 013.38-3.38L92.518 37a3.391 3.391 0 013.402 3.402z" fill="#FFB100"/><rect fill="#FA9F00" x="34" y="33" width="65" height="7" rx="3.5"/><rect fill="#FA9F00" x="34" y="96" width="65" height="7" rx="3.5"/><path d="M56 33h21v29.5C77 68.299 72.299 73 66.5 73S56 68.299 56 62.5V33z" fill="#FA9F00"/><path d="M46 33h15v13.5a7.5 7.5 0 01-15 0V33z" fill="#FA9F00"/><path d="M29 48a2 2 0 114 0c0 19.342 15.235 35 34 35s34-15.658 34-35a2 2 0 014 0c0 21.527-17 39-38 39S29 69.527 29 48z" fill="#FA9F00" fill-rule="nonzero"/></g></svg><svg xmlns="http://www.w3.org/2000/svg" xmlns:xlink="http://www.w3.org/1999/xlink" y="540" width="135" height="135"><g fill="none" fill-rule="evenodd"><path d="M92.205 103.906c1.786 2.669 1.085 6.293-1.564 8.095a5.754 5.754 0 01-8.029-1.57L62.209 80.852c-1.785-2.669-1.085-6.293 1.564-8.095a5.754 5.754 0 018.03 1.57l20.402 29.579z" fill="#F89700"/><path d="M58.09 75.803a.84.84 0 01.182-1.166l8.688-6.363a.824.824 0 011.157.185l14.605 20.264a.84.84 0 01-.184 1.167l-8.687 6.362a.824.824 0 01-1.157-.185L58.09 75.803z" fill="#FFB100"/><path d="M27.555 78.137a5.864 5.864 0 010-8.246 5.751 5.751 0 018.18 0l17.846 18.027a11.503 11.503 0 01-16.36 0l-9.666-9.781z" fill="#F89700"/><path d="M74.428 76.524l-20.36 13.735a1.649 1.649 0 01-2.3-.451l-6.203-9.27a1.679 1.679 0 01.447-2.319l20.36-13.735a1.649 1.649 0 012.3.451l6.203 9.27a1.679 1.679 0 01-.447 2.319z" fill="#FFB100"/><path d="M77.974 56.048a5.885 5.885 0 01-7.821 8.795c-8.309-7.389-16.261-9.249-24.687-6.066a5.885 5.885 0 01-4.16-11.01c12.735-4.81 25.234-1.887 36.668 8.281z" fill="#F89700" fill-rule="nonzero"/><path d="M40.306 61.13c3.492 2.181 8.1 1.103 10.295-2.408 2.194-3.511 1.142-8.126-2.35-10.308-3.49-2.181-8.1-1.104-10.294 2.408-2.194 3.51-1.142 8.126 2.35 10.307zm59.076 45.906l-7.032 6.61a5.189 5.189 0 01-7.375-.26 5.29 5.29 0 01.258-7.434l7.031-6.61a5.189 5.189 0 017.375.26 5.29 5.29 0 01-.257 7.434zM34.62 77.104l-8.868 3.806a5.189 5.189 0 01-6.841-2.767 5.29 5.29 0 012.785-6.898l8.867-3.806a5.189 5.189 0 016.842 2.766 5.29 5.29 0 01-2.785 6.899zM84.36 51.08l-5.99 6.949a4.52 4.52 0 01-6.412.452 4.607 4.607 0 01-.448-6.464l5.99-6.947a4.52 4.52 0 016.412-.451 4.607 4.607 0 01.448 6.463z" fill="#F89700"/><path d="M75.798 53.982c6.312 2.7 9.267 10.04 6.61 16.41l-4.79 11.484c-1.064 2.55-3.978 3.75-6.508 2.677a4.947 4.947 0 01-.016-.007l-13.683-5.855c-2.52-1.078-3.701-4.01-2.64-6.554l4.803-11.515c2.646-6.343 9.892-9.324 16.185-6.656l.039.016z" fill="#FFB100"/><path d="M102.696 56.541a5.885 5.885 0 015.515 10.397c-14.1 7.48-27.289 6.28-38.194-3.721a5.885 5.885 0 017.955-8.674c7.1 6.51 14.883 7.218 24.724 1.998z" fill="#F89700" fill-rule="nonzero"/><path d="M103.639 66.98c4.011.927 8.018-1.593 8.95-5.627.93-4.034-1.566-8.056-5.578-8.982-4.011-.926-8.018 1.594-8.95 5.628-.93 4.034 1.566 8.055 5.578 8.982zM93.278 19.754c7.29 1.969 11.617 9.523 9.664 16.872l-2.336 8.788c-1.954 7.35-9.447 11.71-16.738 9.742-7.29-1.97-11.617-9.524-9.663-16.873l2.335-8.788c1.954-7.35 9.448-11.71 16.738-9.741z" fill="#F89700"/><path d="M101.918 44.998a3.567 3.567 0 01-3.971-3.12c-.24-1.966 1.15-3.755 3.104-3.997a3.567 3.567 0 013.972 3.12c.24 1.966-1.15 3.755-3.105 3.997z" fill="#F89700"/></g></svg><svg xmlns="http://www.w3.org/2000/svg" xmlns:xlink="http://www.w3.org/1999/xlink" y="675" width="135" height="135"><g fill="none" fill-rule="evenodd"><path d="M53 41.25l18.255-6.401C71.997 34.304 72.98 34 74 34c2.21 0 4 1.394 4 3.113v9.137l-25-5z" fill="#BCE385"/><path d="M81 37.663V51L56 41l17.986-7.914A5 5 0 0181 37.663zm9.816 27.138l11.975-18.674A5 5 0 01112 48.826v37.35a5 5 0 01-9.209 2.698L90.816 70.199a5 5 0 010-5.398z" fill="#F89700"/><path d="M58.924 40H63c14.912 0 27 12.088 27 27S77.912 94 63 94H48.924c-9.389 0-17-7.611-17-17V67c0-14.912 12.088-27 27-27z" fill="#FBB100"/><path d="M32.172 67.686l14.142 14.142a6 6 0 01-8.486 8.486L23.686 76.172a6 6 0 018.486-8.486zM79.325 96.75c2.9-5.022 1.18-11.444-3.843-14.343-5.022-2.9-17.432 1.193-17.807 1.843-.375.65 2.285 13.444 7.307 16.343 5.022 2.9 11.444 1.18 14.343-3.843zM48 55a4 4 0 014 4v12a4 4 0 11-8 0V59a4 4 0 014-4z" fill="#F89700"/></g></svg><svg xmlns="http://www.w3.org/2000/svg" xmlns:xlink="http://www.w3.org/1999/xlink" y="810" width="135" height="135"><g fill="none" fill-rule="evenodd"><path d="M107 85H84V67.5C84 58.387 76.613 51 67.5 51S51 58.387 51 67.5V85H28V66.5C28 44.685 45.685 27 67.5 27S107 44.685 107 66.5V85z" fill="#F89700"/><path d="M28 85h23v18a2 2 0 01-2 2H30a2 2 0 01-2-2V85zm56 0h23v18a2 2 0 01-2 2H86a2 2 0 01-2-2V85z" fill="#FFB100"/></g></svg><svg xmlns="http://www.w3.org/2000/svg" xmlns:xlink="http://www.w3.org/1999/xlink" y="945" width="135" height="135"><g fill="none" fill-rule="evenodd"><path d="M46.763 42.851H73.09c1.521 0 2.876.96 3.38 2.396l6.15 17.53a3.581 3.581 0 01-3.38 4.767H40.614a3.581 3.581 0 01-3.38-4.768l6.15-17.53a3.581 3.581 0 013.38-2.395z" fill="#F89700"/><path d="M24.202 67.544H50.53c1.521 0 2.876.96 3.38 2.395l6.15 17.53a3.581 3.581 0 01-3.38 4.767H18.053a3.581 3.581 0 01-3.38-4.767l6.15-17.53a3.581 3.581 0 013.38-2.395z" fill="#F89700"/><path d="M68.422 67.544h26.327c1.52 0 2.876.96 3.38 2.395l6.15 17.53a3.581 3.581 0 01-3.38 4.767H62.272a3.581 3.581 0 01-3.38-4.767l6.15-17.53a3.581 3.581 0 013.38-2.395z" fill="#FFBC00"/><path d="M97.883 67.544h14.61c1.505 0 2.85.94 3.365 2.355l6.39 17.53a3.581 3.581 0 01-3.365 4.807H80.117a3.572 3.572 0 01-2.616-1.136 3.581 3.581 0 01-2.618 1.136H36.117a3.581 3.581 0 01-3.365-4.808l6.39-17.53a3.581 3.581 0 013.365-2.354h16.61a3.581 3.581 0 01-3.365-4.808l6.39-17.53a3.581 3.581 0 013.365-2.355h25.986c1.505 0 2.85.941 3.365 2.355l6.39 17.53a3.581 3.581 0 01-3.365 4.808z" fill="#FFB100"/><path d="M86.507 67.544H68.493c1.505 0 2.85.94 3.365 2.355L77.5 85.377 83.142 69.9a3.581 3.581 0 013.365-2.355z" fill="#F89700"/><path d="M93.167 35.061l4.972-4.972a2.985 2.985 0 014.22 0l4.859 4.859a2.985 2.985 0 010 4.22l-4.972 4.972a2.985 2.985 0 01-4.22 0l-4.86-4.858a2.985 2.985 0 010-4.221zm-62.62 43.162l4.282-4.283a1.99 1.99 0 012.814 0l4.195 4.195a1.99 1.99 0 010 2.814l-4.282 4.283a1.99 1.99 0 01-2.814 0l-4.195-4.195a1.99 1.99 0 010-2.814z" fill="#FFD300"/></g></svg><svg xmlns="http://www.w3.org/2000/svg" xmlns:xlink="http://www.w3.org/1999/xlink" y="1080" width="135" height="135"><g fill="none" fill-rule="evenodd"><circle fill="#FFB100" cx="67.5" cy="67.5" r="40.5"/><path d="M102.787 87.392c-4.962 8.782-13.107 15.527-22.869 18.669a4.86 4.86 0 01-.427-5.599l4.93-8.23a7.456 7.456 0 013.978-3.22l9.074-3.112a4.858 4.858 0 015.314 1.492zm-47.193 18.83c-9.802-3.01-18.02-9.64-23.093-18.33a4.858 4.858 0 015.678-1.992l9.074 3.111a7.456 7.456 0 013.978 3.221l4.93 8.23a4.86 4.86 0 01-.567 5.76zM27.08 70.07c-.053-.85-.08-1.707-.08-2.57 0-9.35 3.168-17.96 8.49-24.815l.608-.055a5.362 5.362 0 015.828 5.779l-.758 9.237a7.456 7.456 0 01-2.376 4.87l-6.812 6.285a5.362 5.362 0 01-4.9 1.27zm25.948-40.408A40.405 40.405 0 0167.5 27c5.071 0 9.925.932 14.398 2.634a4.337 4.337 0 01-2.896 4.627l-9.116 3.13a7.456 7.456 0 01-4.842 0l-9.116-3.13a4.336 4.336 0 01-2.9-4.599zM99.47 42.635A40.325 40.325 0 01108 67.5c0 .897-.03 1.787-.087 2.67a5.34 5.34 0 01-4.376-1.37l-6.812-6.284a7.456 7.456 0 01-2.376-4.87l-.758-9.237a5.362 5.362 0 015.828-5.779l.052.005zM71.75 54.11l7.572 5.5a7.456 7.456 0 012.708 8.337l-2.892 8.901A7.456 7.456 0 0172.047 82h-9.36a7.456 7.456 0 01-7.09-5.152l-2.893-8.901a7.456 7.456 0 012.709-8.336l7.572-5.501a7.456 7.456 0 018.765 0z" fill="#F89700"/></g></svg><svg xmlns="http://www.w3.org/2000/svg" xmlns:xlink="http://www.w3.org/1999/xlink" y="1215" width="135" height="135"><g fill="none" fill-rule="evenodd"><path d="M56.578 30h22.844A6.578 6.578 0 0186 36.578v13.844A6.578 6.578 0 0179.422 57H56.578A6.578 6.578 0 0150 50.422V36.578A6.578 6.578 0 0156.578 30z" stroke="#FFB100" stroke-width="8.524"/><path d="M30.578 42h74.844A6.578 6.578 0 01112 48.578v48.844a6.578 6.578 0 01-6.578 6.578H30.578A6.578 6.578 0 0124 97.422V48.578A6.578 6.578 0 0130.578 42z" fill="#FFB100"/><path fill="#F89700" d="M31 42h15v62H31zm59 0h15v62H90zM65.193 60h6.614c1.211 0 2.193.982 2.193 2.193V84.92a2.193 2.193 0 01-2.193 2.193h-6.614A2.193 2.193 0 0163 84.92V62.193c0-1.211.982-2.193 2.193-2.193z"/><path d="M82.113 70.193v6.614A2.193 2.193 0 0179.92 79H57.193A2.193 2.193 0 0155 76.807v-6.614c0-1.211.982-2.193 2.193-2.193H79.92c1.211 0 2.193.982 2.193 2.193z" fill="#F89700"/></g></svg><svg xmlns="http://www.w3.org/2000/svg" xmlns:xlink="http://www.w3.org/1999/xlink" y="1350" width="135" height="135"><g fill="none" fill-rule="evenodd"><path d="M110.557 46.73A3.619 3.619 0 01112 49.623v2.752A3.624 3.624 0 01108.376 56h-4.85v28.8h.083c1 0 1.812.811 1.812 1.812V91h2.767c1 0 1.812.811 1.812 1.812v6.376c0 1-.811 1.812-1.812 1.812H26.812c-1 0-1.812-.811-1.812-1.812v-6.376c0-1 .811-1.812 1.812-1.812h2.82v-4.388c0-1 .81-1.812 1.812-1.812h.082V56h-2.902A3.624 3.624 0 0125 52.376v-2.752c0-1.182.567-2.233 1.443-2.895h-1.49a1.812 1.812 0 01-.815-3.43l43.514-21.886a1.812 1.812 0 011.64.007L112 43.304a1.812 1.812 0 01-.826 3.425h-.617zM45.737 56v28.8h15.158V56H45.737zm29.368 0v28.8h14.21V56h-14.21z" fill="#FFB100"/><path fill="#F89700" opacity=".872" d="M31.526 56.259h14.21v12.388l-14.21 1.906zm29.369 0h14.21v9.53l-14.21 1.905zm28.421 0h14.21v5.717l-14.21 1.906z"/></g></svg><svg xmlns="http://www.w3.org/2000/svg" xmlns:xlink="http://www.w3.org/1999/xlink" y="1485" width="135" height="135"><g fill="none" fill-rule="evenodd"><path d="M80.765 104.805l25.149-2.732a1.05 1.05 0 00.936-1.044V37.956a1.05 1.05 0 00-1.164-1.043l-25.092 2.756-27.546-7.456-24.005 3.631a1.05 1.05 0 00-.893 1.038v63.026a1.05 1.05 0 001.208 1.038l23.783-3.633 27.624 7.492z" stroke="#FFB100" stroke-width="6.299" fill="#F89700"/><path d="M27.892 101.485V64.936h22.115c7.767 0 14.063 6.296 14.063 14.063v21.574l-10.978-2.95-25.2 3.862zm42.374-40.861l-12.893-2.74c-6.179-1.314-10.123-7.388-8.81-13.567l.055-.26c1.314-6.178 7.387-10.123 13.566-8.81l12.893 2.741a11.43 11.43 0 013.416 1.324l2.545.623 25.894-3.272v35.941H84.295c-7.017 0-12.88-5.152-13.904-11.954a11.601 11.601 0 01-.125-.026z" fill="#FFB100" fill-rule="nonzero"/><path fill="#F89700" opacity=".579" d="M52.975 29l27.974 7.473V108l-27.974-7.473z"/><path d="M60.878 71.69c-3.468-2.298-5.751-6.216-5.751-10.663 0-7.075 5.78-12.81 12.911-12.81 7.13 0 12.911 5.735 12.911 12.81 0 4.495-2.333 8.45-5.863 10.736L70.072 81.94a2.31 2.31 0 01-4.144 0l-5.05-10.25z" fill="#FFD300"/><ellipse fill="#FAA100" cx="68.038" cy="61.027" rx="6.456" ry="6.405"/></g></svg><svg xmlns="http://www.w3.org/2000/svg" xmlns:xlink="http://www.w3.org/1999/xlink" y="1620" width="135" height="135"><g fill="none" fill-rule="evenodd"><path d="M80.685 57.837l3.016.98 8.427-15.77a7.87 7.87 0 0110.994-3.036l.105.063a8.153 8.153 0 012.79 11.188L94.043 71.187 88.08 89.542a16.234 16.234 0 01-4.258 6.77v9.113a5.63 5.63 0 01-5.63 5.63H55.485a5.63 5.63 0 01-5.63-5.63v-11.49a16.214 16.214 0 01-4.743-4.036L28.077 73.435a8.94 8.94 0 01.231-13.072l.145-.13.105-.093a9.247 9.247 0 0113.047.881l3.775 4.323 2.421-7.451 2.174-24.84a8.153 8.153 0 018.833-7.412l.121.011a7.87 7.87 0 017.11 8.919l-2.452 17.71 3.051.992 8.145-25.069a8.153 8.153 0 0110.274-5.234l.086.027A7.844 7.844 0 0190.05 33.25l-9.364 24.588z" fill="#FFB100"/><path d="M50.324 71.556a2.407 2.407 0 112.166-4.298c9.308 4.689 13.82 12.168 13.248 22.062a2.407 2.407 0 11-4.805-.278c.459-7.94-2.982-13.644-10.609-17.486z" fill="#F89700" fill-rule="nonzero"/></g></svg><svg xmlns="http://www.w3.org/2000/svg" xmlns:xlink="http://www.w3.org/1999/xlink" y="1755" width="135" height="135"><g fill="none" fill-rule="evenodd"><path d="M74.986 109.65l-3.537 5.063a3.799 3.799 0 01-6.19.055l-3.63-5.006a18.387 18.387 0 00-18.096-7.313l-6.084 1.079a3.799 3.799 0 01-4.415-4.339l.973-6.104a18.395 18.395 0 00-7.63-17.972l-5.065-3.54a3.799 3.799 0 01-.054-6.19l5.002-3.627a18.387 18.387 0 007.31-18.098l-1.08-6.087a3.799 3.799 0 014.34-4.416l6.1.974a18.383 18.383 0 0017.967-7.627l3.537-5.064a3.799 3.799 0 016.19-.054l3.629 5.006a18.387 18.387 0 0018.097 7.313l6.084-1.08a3.799 3.799 0 014.415 4.34l-.973 6.103a18.395 18.395 0 007.629 17.972l5.066 3.54a3.799 3.799 0 01.054 6.19l-5.002 3.627a18.387 18.387 0 00-7.31 18.098l1.08 6.088a3.799 3.799 0 01-4.34 4.415l-6.1-.973a18.383 18.383 0 00-17.967 7.626z" fill="#F89700"/><ellipse fill="#FFB100" cx="68.62" cy="68.755" rx="30.546" ry="30.555"/></g></svg><svg xmlns="http://www.w3.org/2000/svg" xmlns:xlink="http://www.w3.org/1999/xlink" y="1890" width="135" height="135"><g fill="none" fill-rule="evenodd"><path d="M67.662 55.849a6.24 6.24 0 015.717 3.738c4.712 10.767 7.334 21.157 7.866 31.17.538 10.124.589 18.673.15 25.646a2.244 2.244 0 01-2.239 2.103H63.021a2.244 2.244 0 01-2.21-2.635 203.3 203.3 0 002.847-24.71c.44-8.262.48-18.702.124-31.32a3.882 3.882 0 013.88-3.992z" fill="#F89700"/><path d="M55.361 57.527L91.848 21.04c.774-.774 2.112-.375 2.366.704 2.52 10.714-.523 21.958-8.357 29.792-7.833 7.833-19.077 10.876-29.792 8.356-1.079-.254-1.477-1.592-.704-2.365z" fill="#F89700" fill-rule="nonzero"/><path d="M108.916 61.116c1.056.283 1.38 1.64.573 2.4-8.02 7.54-19.278 10.526-29.98 7.659-10.7-2.867-18.957-11.083-22.132-21.622-.32-1.062.64-2.076 1.696-1.793l49.843 13.356z" fill="#FFB100" fill-rule="nonzero"/><path d="M75.373 52.165c1.056.283 1.38 1.641.572 2.4-8.019 7.54-19.278 10.526-29.978 7.66-10.701-2.868-18.959-11.084-22.133-21.623-.32-1.061.64-2.076 1.696-1.793l49.843 13.356z" fill="#FFB100" fill-rule="nonzero"/><path d="M30.786 82.05l36.487-36.487c.773-.773 2.112-.375 2.366.704 2.52 10.715-.523 21.959-8.357 29.792-7.834 7.834-19.077 10.877-29.792 8.357-1.079-.254-1.477-1.592-.704-2.366z" fill="#F89700" fill-rule="nonzero"/></g></svg><svg xmlns="http://www.w3.org/2000/svg" xmlns:xlink="http://www.w3.org/1999/xlink" y="2025" width="135" height="135"><g fill="none" fill-rule="evenodd"><path d="M26.617 37.454h81.766A3.617 3.617 0 01112 41.07v60.754a3.617 3.617 0 01-3.617 3.616H26.617A3.617 3.617 0 0123 101.824V41.07a3.617 3.617 0 013.617-3.616z" fill="#F89700"/><path d="M60.008 36.925a7.75 7.75 0 017.75 7.75v54.124h-39.1V36.925h31.349z" fill="#FFB100"/><path d="M59.493 31.108a7.75 7.75 0 017.75 7.75V94.6c-1.03-4.584-3.43-6.875-7.203-6.875H28.66v-54.55c0-1.142.925-2.067 2.067-2.067h28.767zm15.499 5.817h31.349v61.874H67.243V44.675a7.75 7.75 0 017.75-7.75z" fill="#FFB100"/><path d="M75.995 73.415h23.137c.856 0 1.55.694 1.55 1.55v.073a1.55 1.55 0 01-1.55 1.55H75.995a1.55 1.55 0 01-1.55-1.55v-.073c0-.856.694-1.55 1.55-1.55zm0 5.817H87.3c.856 0 1.55.694 1.55 1.55v.073a1.55 1.55 0 01-1.55 1.55H75.995a1.55 1.55 0 01-1.55-1.55v-.073c0-.856.694-1.55 1.55-1.55zm-.517-37.547h24.17c.571 0 1.034.462 1.034 1.033v24.904c0 .57-.463 1.033-1.033 1.033h-24.17a1.033 1.033 0 01-1.034-1.033V42.718c0-.57.463-1.033 1.033-1.033z" fill="#D8D8D8"/><path d="M43.068 29h11.31c.57 0 1.032.463 1.032 1.033v29.655a1.033 1.033 0 01-1.489.927l-5.198-2.557-5.199 2.557a1.033 1.033 0 01-1.49-.927V30.033c0-.57.463-1.033 1.034-1.033z" fill="#F89700"/><path d="M74.992 31.108h29.282c1.142 0 2.067.925 2.067 2.066v54.55H74.445c-3.773 0-6.173 2.292-7.202 6.876V38.858a7.75 7.75 0 017.75-7.75z" fill="#FFB100"/><path d="M60.72 98.762l4.203-2.665a4.133 4.133 0 014.427 0l4.202 2.665c.556.352.893.965.893 1.624 0 .584-.473 1.057-1.058 1.057H60.885a1.058 1.058 0 01-1.057-1.057c0-.659.337-1.272.893-1.624z" fill="#F89700"/><path d="M74.452 42.213h24.68c.856 0 1.55.694 1.55 1.55V63.14a1.55 1.55 0 01-1.55 1.55h-24.68a1.55 1.55 0 01-1.55-1.55V43.763c0-.856.694-1.55 1.55-1.55z" fill="#FFD300"/></g></svg><svg xmlns="http://www.w3.org/2000/svg" xmlns:xlink="http://www.w3.org/1999/xlink" y="2160" width="135" height="135"><g fill="none" fill-rule="evenodd"><path d="M31 48h72" stroke="#FA9F00" stroke-width="4" stroke-linecap="round" stroke-linejoin="round"/><path d="M95.92 40.402l-.198 58.814a3.391 3.391 0 01-3.38 3.38l-50.94.17A3.391 3.391 0 0138 99.365l.198-58.813a3.391 3.391 0 013.38-3.38L92.518 37a3.391 3.391 0 013.402 3.402z" fill="#FFB100"/><rect fill="#FA9F00" x="34" y="33" width="65" height="7" rx="3.5"/><rect fill="#FA9F00" x="34" y="96" width="65" height="7" rx="3.5"/><path d="M56 33h21v29.5C77 68.299 72.299 73 66.5 73S56 68.299 56 62.5V33z" fill="#FA9F00"/><path d="M46 33h15v13.5a7.5 7.5 0 01-15 0V33z" fill="#FA9F00"/><path d="M29 48a2 2 0 114 0c0 19.342 15.235 35 34 35s34-15.658 34-35a2 2 0 014 0c0 21.527-17 39-38 39S29 69.527 29 48z" fill="#FA9F00" fill-rule="nonzero"/></g></svg><svg xmlns="http://www.w3.org/2000/svg" xmlns:xlink="http://www.w3.org/1999/xlink" y="2295" width="135" height="135"><g fill="none" fill-rule="evenodd"><path d="M68 103c-19.33 0-35-15.67-35-35s15.67-35 35-35 35 15.67 35 35-15.67 35-35 35z" fill="#FFD300"/><path d="M59.704 57.188a3.708 3.708 0 00-2.348 2.348L50.51 80.123a3.708 3.708 0 004.724 4.677l20.416-7.017a3.708 3.708 0 002.301-2.301l7.017-20.417a3.708 3.708 0 00-4.677-4.723l-20.587 6.846z" fill="#F89700"/><path d="M77.089 76.876a3.707 3.707 0 01-1.44.907L55.235 84.8a3.708 3.708 0 01-4.724-4.677l6.846-20.587a3.707 3.707 0 01.919-1.474L77.09 76.876z" fill="#FFB100"/><circle stroke="#F89700" stroke-width="9" cx="68" cy="68" r="39.5"/></g></svg><svg xmlns="http://www.w3.org/2000/svg" xmlns:xlink="http://www.w3.org/1999/xlink" y="2430" width="135" height="135"><g fill="none" fill-rule="evenodd"><path d="M40.356 96.054h5.96a2.938 2.938 0 012.938 2.938v9.07A2.938 2.938 0 0146.316 111h-5.96a2.938 2.938 0 01-2.938-2.938v-9.07a2.938 2.938 0 012.938-2.938zm48.328 0h5.96a2.938 2.938 0 012.938 2.938v9.07A2.938 2.938 0 0194.644 111h-5.96a2.938 2.938 0 01-2.938-2.938v-9.07a2.938 2.938 0 012.938-2.938z" fill="#F89700"/><path d="M58.896 26h17.208A4.896 4.896 0 0181 30.896v5.208A4.896 4.896 0 0176.104 41H58.896A4.896 4.896 0 0154 36.104v-5.208A4.896 4.896 0 0158.896 26z" fill="#FFB100"/><path d="M105.386 62h3.228A5.386 5.386 0 01114 67.386v.228A5.386 5.386 0 01108.614 73h-3.228A5.386 5.386 0 01100 67.614v-.228A5.386 5.386 0 01105.386 62zm-79 0h3.228A5.386 5.386 0 0135 67.386v.228A5.386 5.386 0 0129.614 73h-3.228A5.386 5.386 0 0121 67.614v-.228A5.386 5.386 0 0126.386 62z" fill="#F89700"/><path d="M48.726 38.552h37.911a9.302 9.302 0 019.3 9.09l.714 31.292a9.302 9.302 0 01-9.088 9.512l-.212.002H48.012a9.302 9.302 0 01-9.302-9.302c0-.106 0-.106.003-.212l.713-31.292a9.302 9.302 0 019.3-9.09z" stroke="#F89700" stroke-width="4.896" fill="#FFB100"/><path d="M37.875 73h59.25A5.875 5.875 0 01103 78.875v15.208A3.917 3.917 0 0199.083 98H35.917A3.917 3.917 0 0132 94.083V78.875A5.875 5.875 0 0137.875 73z" fill="#F89700"/><path d="M33.264 94h68.472A3.264 3.264 0 01105 97.264v3.472a3.264 3.264 0 01-3.264 3.264H33.264A3.264 3.264 0 0130 100.736v-3.472A3.264 3.264 0 0133.264 94z" fill="#FFB100"/><path d="M90.917 79h5.166A3.917 3.917 0 01100 82.917v4.166A3.917 3.917 0 0196.083 91h-5.166A3.917 3.917 0 0187 87.083v-4.166A3.917 3.917 0 0190.917 79zm-52 0h5.166A3.917 3.917 0 0148 82.917v4.166A3.917 3.917 0 0144.083 91h-5.166A3.917 3.917 0 0135 87.083v-4.166A3.917 3.917 0 0138.917 79z" fill="#FFD300"/><path d="M59.958 72.552h15.084a4.406 4.406 0 014.406 4.406v15.084a4.406 4.406 0 01-4.406 4.406H59.958a4.406 4.406 0 01-4.406-4.406V76.958a4.406 4.406 0 014.406-4.406z" stroke="#F89700" stroke-width="4.896" fill="#FFB100"/></g></svg><svg xmlns="http://www.w3.org/2000/svg" xmlns:xlink="http://www.w3.org/1999/xlink" y="2565" width="135" height="135"><g fill="none" fill-rule="evenodd"><path d="M107 85H84V67.5C84 58.387 76.613 51 67.5 51S51 58.387 51 67.5V85H28V66.5C28 44.685 45.685 27 67.5 27S107 44.685 107 66.5V85z" fill="#F89700"/><path d="M28 85h23v18a2 2 0 01-2 2H30a2 2 0 01-2-2V85zm56 0h23v18a2 2 0 01-2 2H86a2 2 0 01-2-2V85z" fill="#FFB100"/></g></svg><svg xmlns="http://www.w3.org/2000/svg" xmlns:xlink="http://www.w3.org/1999/xlink" y="2700" width="135" height="135"><g fill="none" fill-rule="evenodd"><path d="M43.497 39.802h48.006C101.719 39.802 110 48.084 110 58.3v28.204C110 96.719 101.719 105 91.503 105H43.497C33.281 105 25 96.719 25 86.503V58.299c0-10.215 8.281-18.497 18.497-18.497z" fill="#FFB100"/><path d="M68.507 30.488h6.268a2.055 2.055 0 011.924 2.779l-4.68 12.448a2.055 2.055 0 01-1.924 1.332H56.236a2.055 2.055 0 01-1.463-3.499l12.27-12.447a2.055 2.055 0 011.464-.613z" fill="#FFB100"/><path d="M25 61.535h25.92a3.105 3.105 0 010 6.21H25v-6.21zm49.756 15.523v6.21h-25.92a3.105 3.105 0 010-6.21h25.92zm4.146 10.349v6.21H60.24a3.105 3.105 0 010-6.21h18.663z" fill="#F89700" opacity=".821"/><path d="M41.987 19.895c.902-.968 8.758-1.108 12.342 2.345 3.585 3.452 4.114 11.409 3.32 12.26-.794.851-8.756.992-12.462-2.456-3.707-3.448-4.103-11.181-3.2-12.15z" fill="#F89700"/><path d="M92.226 42.371c-8.23 0-14.9 6.671-14.9 14.9v30.26c0 8.229 6.67 14.9 14.9 14.9h.305c8.229 0 14.9-6.671 14.9-14.9V57.27c0-8.229-6.671-14.9-14.9-14.9h-.305z" stroke="#FFB100" stroke-width="5.138" fill="#F89700"/><path d="M92.637 59.465a4.405 4.405 0 014.406 4.406v16.026a4.405 4.405 0 11-8.811 0V63.87a4.405 4.405 0 014.405-4.406z" fill="#FFB100"/></g></svg><svg xmlns="http://www.w3.org/2000/svg" xmlns:xlink="http://www.w3.org/1999/xlink" y="2835" width="135" height="135"><g fill="none" fill-rule="evenodd"><path d="M88.175 31l15.443 15.443-50.482 50.482-21.631 8.92a2.093 2.093 0 01-2.732-2.732l8.92-21.63L88.175 31z" fill="#F89700"/><path d="M53.427 96.635l-.29.29-21.632 8.92a2.093 2.093 0 01-2.732-2.732l8.92-21.63.348-.35 12.524 2.828 2.862 12.674z" fill="#FFB100"/><path d="M37.368 103.428l-5.863 2.418a2.093 2.093 0 01-2.732-2.733l2.417-5.862 6.178 6.177zM99.344 25.96l9.638 9.637a4.185 4.185 0 010 5.919L96.516 53.982a4.185 4.185 0 01-5.919 0l-9.638-9.638a4.185 4.185 0 010-5.919L93.425 25.96a4.185 4.185 0 015.92 0z" fill="#F89700"/><path d="M86.622 32.48l15.425 15.425a2.093 2.093 0 010 2.96L90.864 62.046a2.093 2.093 0 01-2.959 0L72.48 46.622a2.093 2.093 0 010-2.96L83.662 32.48a2.093 2.093 0 012.96 0z" fill="#FFB100"/></g></svg><svg xmlns="http://www.w3.org/2000/svg" xmlns:xlink="http://www.w3.org/1999/xlink" y="2970" width="135" height="135"><g fill="none" fill-rule="evenodd"><path fill="#F89700" d="M53.528 51.33h29.025l5.027 45.92H48.5z"/><path d="M50.312 91.174h34.376a4.98 4.98 0 014.979 4.979v.245a4.98 4.98 0 01-4.98 4.98H50.313a4.98 4.98 0 01-4.979-4.98v-.245a4.98 4.98 0 014.98-4.98z" fill="#F89700"/><path d="M45.473 99.29h44.054A6.473 6.473 0 0196 105.761v.32a6.473 6.473 0 01-6.473 6.473H45.473A6.473 6.473 0 0139 106.082v-.32a6.473 6.473 0 016.473-6.473zm8.007-51.068H82.6a4.98 4.98 0 014.98 4.979v.246a4.98 4.98 0 01-4.98 4.979H53.479a4.98 4.98 0 01-4.979-4.98v-.245a4.98 4.98 0 014.98-4.98z" fill="#F89700"/><path d="M47.78 28.592h39.44a4.98 4.98 0 014.98 4.979v10.92a4.98 4.98 0 01-4.98 4.978H47.78a4.98 4.98 0 01-4.98-4.979V33.571a4.98 4.98 0 014.98-4.98z" fill="#F89700"/><path d="M46.534 21h7.732A3.734 3.734 0 0158 24.734v11.511a3.734 3.734 0 01-3.734 3.735h-7.732a3.734 3.734 0 01-3.734-3.735v-11.51A3.734 3.734 0 0146.534 21zm17.1 0h7.732a3.734 3.734 0 013.734 3.734v11.511a3.734 3.734 0 01-3.734 3.735h-7.732a3.734 3.734 0 01-3.734-3.735v-11.51A3.734 3.734 0 0163.634 21zm17.1 0h7.732a3.734 3.734 0 013.734 3.734v11.511a3.734 3.734 0 01-3.734 3.735h-7.732A3.734 3.734 0 0177 36.245v-11.51A3.734 3.734 0 0180.734 21z" fill="#F89700"/><path d="M47.19 22.898h2.62a2.49 2.49 0 012.49 2.49v17.796a2.49 2.49 0 01-2.49 2.49h-2.62a2.49 2.49 0 01-2.49-2.49V25.388a2.49 2.49 0 012.49-2.49zM58.71 58.96h2.5a2.49 2.49 0 012.49 2.489v25.388a2.49 2.49 0 01-2.49 2.49h-4.53a2.49 2.49 0 01-2.482-2.689l2.031-25.388a2.49 2.49 0 012.482-2.29zm-10.214 41.754h5.708a3.796 3.796 0 110 7.592h-5.708a3.796 3.796 0 110-7.592z" fill="#FFB100"/></g></svg><svg xmlns="http://www.w3.org/2000/svg" xmlns:xlink="http://www.w3.org/1999/xlink" y="3105" width="135" height="135"><path d="M67.486 84.965c-4.536 0-8.116-3.103-8.116-8.115 0-3.82.955-7.4 5.251-12.174l6.445-7.28c3.58-3.939 4.774-6.684 4.774-9.668 0-4.654-3.103-7.877-7.877-7.877-4.416 0-6.803 2.268-8.355 5.848-1.67 3.58-4.535 5.252-7.638 5.252-4.535 0-7.638-2.865-7.638-7.28 0-.955.238-2.149.596-3.223 2.745-8.593 11.22-14.919 23.393-14.919 14.203 0 23.99 9.31 23.99 21.603 0 6.086-1.91 10.741-6.446 15.634l-7.4 8.236c-2.028 2.267-2.744 3.938-2.744 5.848 0 5.012-3.82 8.115-8.235 8.115zm-9.787 14.561c0-5.37 4.416-9.787 9.787-9.787 5.37 0 9.786 4.416 9.786 9.787 0 5.37-4.416 9.787-9.786 9.787-5.371 0-9.787-4.416-9.787-9.787z" fill="#FFB100" fill-rule="evenodd"/></svg><svg xmlns="http://www.w3.org/2000/svg" xmlns:xlink="http://www.w3.org/1999/xlink" y="3240" width="135" height="135"><g fill="none" fill-rule="evenodd"><path d="M67.5 23c15.216 0 28.051 11.33 29.939 26.43l6.804 54.43a4.787 4.787 0 01-8.135 3.978l-.243-.244c-5.18-5.179-13.577-5.179-18.756 0-.08.08-.16.162-.237.244-4.917 5.176-13.1 5.385-18.275.468-.16-.152-.316-.308-.469-.468-5.044-5.31-13.439-5.526-18.75-.48a13.26 13.26 0 00-.243.236l-.243.244a4.787 4.787 0 01-8.135-3.979l6.804-54.43C39.45 34.331 52.284 23 67.5 23z" fill="#F89700"/><rect fill="#F89700" transform="rotate(37 38.224 72.389)" x="29.224" y="52.389" width="18" height="40" rx="9"/><path d="M83.188 55.416a9 9 0 00-1.772 12.604l13.842 18.37a9 9 0 1014.375-10.833l-13.84-18.369a9 9 0 00-12.604-1.772z" fill="#F89700"/><rect fill="#FFC800" x="70.825" y="40.705" width="8.547" height="18.2" rx="4.273"/><rect fill="#FFC800" x="56.174" y="40.705" width="8.547" height="18.2" rx="4.273"/></g></svg><svg xmlns="http://www.w3.org/2000/svg" xmlns:xlink="http://www.w3.org/1999/xlink" y="3375" width="135" height="135"><g fill="none" fill-rule="evenodd"><path d="M72.258 74.688l16.974 9.8c7.491 4.325 10.058 13.903 5.733 21.393l-.554.96c-4.325 7.49-13.903 10.056-21.393 5.732L48.486 98.409a15.735 15.735 0 01-2.535-1.819C41.17 93.551 38 88.21 38 82.125V24.84A4.84 4.84 0 0142.84 20h24.578a4.84 4.84 0 014.84 4.84v49.848z" fill="#FFB100"/><path d="M90.273 85.143c6.68 4.58 8.81 13.606 4.692 20.738l-.554.96c-4.118 7.132-13 9.8-20.306 6.305l16.168-28.003zM38 29.603h34.258v7.831H38zm0 12.72h34.258v7.831H38zm11.053 56.414l-.567-.328a15.735 15.735 0 01-2.535-1.819C41.17 93.551 38 88.21 38 82.125v-6.19c7.667 0 13.882 6.36 13.882 14.205 0 3.231-1.054 6.21-2.83 8.597z" fill="#F89700"/></g></svg><svg xmlns="http://www.w3.org/2000/svg" xmlns:xlink="http://www.w3.org/1999/xlink" y="3510" width="135" height="135"><g fill="none" fill-rule="evenodd"><path d="M43.875 33.87h47.25v9.088c0 13.047-10.577 23.625-23.625 23.625S43.875 56.005 43.875 42.958V33.87z" fill="#FFB100"/><path d="M74.632 69.426a9.864 9.864 0 01-.31.31c-3.937 3.766-10.18 3.627-13.946-.31l-8.001-8.365a9.352 9.352 0 016.759-15.816h16.74a9.352 9.352 0 016.759 15.816l-8.001 8.365z" fill="#FFB100"/><path d="M43.875 102.17v-9.09c0-13.047 10.577-23.625 23.625-23.625S91.125 80.033 91.125 93.08v9.088h-47.25z" fill="#FFB100"/><path d="M74.632 66.613l8 8.365a9.352 9.352 0 01-6.758 15.816h-16.74a9.352 9.352 0 01-6.759-15.816l8-8.365c3.766-3.937 10.01-4.076 13.947-.31.105.1.209.204.31.31z" fill="#FFB100"/><path d="M49.781 39.804H85.22v3.99c0 9.787-7.933 17.72-17.719 17.72-9.786 0-17.719-7.933-17.719-17.72v-3.99z" fill="#FFC800"/><path d="M74.201 61.854a9.864 9.864 0 01-13.396 0l-4.649-4.3a6.053 6.053 0 014.11-10.497H74.74a6.053 6.053 0 014.11 10.496l-4.648 4.3zM49.781 106c0-6.912 5.604-12.516 12.516-12.516h10.406c6.912 0 12.516 5.604 12.516 12.516H49.78z" fill="#FFC800"/><path d="M72.309 91.458l6.54 3.65a3.38 3.38 0 01-1.646 6.33h-19.4a3.38 3.38 0 01-1.647-6.33l6.541-3.65a9.864 9.864 0 019.612 0z" fill="#FFC800"/><ellipse fill="#FFC800" cx="65.272" cy="77.696" rx="3.678" ry="3.696"/><path d="M38 25h59a2 2 0 012 2v5a2 2 0 01-2 2H38a2 2 0 01-2-2v-5a2 2 0 012-2zm0 77h59a2 2 0 012 2v5a2 2 0 01-2 2H38a2 2 0 01-2-2v-5a2 2 0 012-2z" fill="#F89700"/></g></svg><svg xmlns="http://www.w3.org/2000/svg" xmlns:xlink="http://www.w3.org/1999/xlink" y="3645" width="135" height="135"><g fill="none" fill-rule="evenodd"><path d="M68.008 23a5.067 5.067 0 015.067 5.067v60.83a5.067 5.067 0 01-10.133 0v-60.83A5.067 5.067 0 0168.008 23z" fill="#F89700"/><path d="M37.635 106.772C40.308 92.286 52.83 81.627 67.54 81.627c14.712 0 27.233 10.66 29.905 25.145.35 1.893-1.097 3.641-3.013 3.641H40.648c-1.916 0-3.362-1.748-3.013-3.641z" fill="#FFB100" fill-rule="nonzero"/><path d="M62.971 76.48h10.074c1.136 0 2.057.92 2.057 2.056v7.2c0 1.136-.92 2.057-2.057 2.057H62.971a2.056 2.056 0 01-2.056-2.057v-7.2c0-1.136.92-2.056 2.056-2.056z" fill="#FFB100"/><path d="M58.243 87.977a2.754 2.754 0 111.29 5.355c-2.463.594-4.296 1.884-5.625 3.95a2.754 2.754 0 01-4.632-2.981c2.101-3.265 5.133-5.4 8.967-6.324z" fill="#FFD300" fill-rule="nonzero"/></g></svg><svg xmlns="http://www.w3.org/2000/svg" xmlns:xlink="http://www.w3.org/1999/xlink" y="3780" width="135" height="135"><g fill="none" fill-rule="evenodd"><ellipse fill="#FFB100" cx="107.5" cy="71.468" rx="10.5" ry="10"/><ellipse fill="#FFB100" cx="27.5" cy="71.468" rx="10.5" ry="10"/><path d="M55.678 18.457a4.5 4.5 0 016.688 6.022c-1.7 1.889-1.636 4.582-.038 6.021 1.597 1.439 4.283 1.22 5.983-.668A4.5 4.5 0 1175 35.855c-4.952 5.499-13.315 6.177-18.694 1.333-5.38-4.844-5.58-13.231-.628-18.73z" fill="#F89700" fill-rule="nonzero"/><path d="M66.494 35.105c-20.155.352-36.209 16.976-35.857 37.132l.07 4c.352 20.154 16.976 36.208 37.131 35.857 20.156-.352 36.21-16.977 35.858-37.132l-.07-4c-.352-20.155-16.976-36.209-37.132-35.857z" fill="#FFB100"/><path d="M73.909 48.339a3.419 3.419 0 013.42 3.418v6.759a3.419 3.419 0 11-6.838 0v-6.759a3.419 3.419 0 013.418-3.418zm-13.647.371a3.419 3.419 0 013.42 3.419v6.758a3.419 3.419 0 11-6.838 0V52.13a3.419 3.419 0 013.418-3.419z" fill="#F89700"/><path d="M46.927 68.468h40.96a2.927 2.927 0 012.926 2.927v6.667c0 12.927-10.48 23.406-23.406 23.406C54.479 101.468 44 90.988 44 78.062v-6.667a2.927 2.927 0 012.927-2.927z" fill="#F89700" fill-rule="nonzero"/><path d="M60.742 68.468h13.513c.158.463.243.958.243 1.474v2.884a4.558 4.558 0 01-4.558 4.558h-4.884a4.558 4.558 0 01-4.558-4.558v-2.884c0-.516.086-1.011.244-1.474z" fill="#FFC800" fill-rule="nonzero"/><circle fill="#F89700" cx="68" cy="33.468" r="9"/></g></svg><svg xmlns="http://www.w3.org/2000/svg" xmlns:xlink="http://www.w3.org/1999/xlink" y="3915" width="135" height="135"><g fill="#F89700" fill-rule="evenodd"><path d="M49.033 71.781l-9.642 9.01a3.95 3.95 0 01-6.647-2.887v-6.456C27.159 70.138 23 65.126 23 59.141v-15.5C23 36.658 28.66 31 35.64 31h30.214c6.98 0 12.64 5.66 12.64 12.64v15.501c0 6.981-5.66 12.64-12.64 12.64h-16.82z" opacity=".6"/><path d="M82.996 93.425h-21.18c-6.98 0-12.64-5.659-12.64-12.64V61.612c0-6.981 5.66-12.64 12.64-12.64H99.36c6.98 0 12.64 5.659 12.64 12.64v19.173c0 6.375-4.72 11.648-10.856 12.515v7.752a3.95 3.95 0 01-6.615 2.916L82.996 93.425z"/></g></svg><svg xmlns="http://www.w3.org/2000/svg" xmlns:xlink="http://www.w3.org/1999/xlink" y="4050" width="135" height="135"><g fill="none" fill-rule="evenodd"><path d="M57.641 38a3.641 3.641 0 11-7.282 0v-4c0-4.888 3.92-8.641 8.841-8.641h15.6c4.92 0 8.841 3.753 8.841 8.641v4a3.641 3.641 0 11-7.282 0v-4c0-.793-.591-1.359-1.559-1.359H59.2c-.968 0-1.559.566-1.559 1.359v4z" fill="#F89700" fill-rule="nonzero"/><path d="M49.305 36h9.39A3.305 3.305 0 0162 39.305v4.39A3.305 3.305 0 0158.695 47h-9.39A3.305 3.305 0 0146 43.695v-4.39A3.305 3.305 0 0149.305 36zm26 0h9.39A3.305 3.305 0 0188 39.305v4.39A3.305 3.305 0 0184.695 47h-9.39A3.305 3.305 0 0172 43.695v-4.39A3.305 3.305 0 0175.305 36z" fill="#F89700"/><path d="M28.104 44.037a5.771 5.771 0 00-5.772 5.771v42.793a5.771 5.771 0 005.771 5.772h77.794a5.771 5.771 0 005.77-5.772V49.808a5.771 5.771 0 00-5.77-5.771H28.103z" stroke="#F89700" stroke-width="6.664" fill="#FFB100"/><path d="M34.212 37h10.576c.67 0 1.212.542 1.212 1.212v66.576c0 .67-.542 1.212-1.212 1.212H34.212c-.67 0-1.212-.542-1.212-1.212V38.212c0-.67.542-1.212 1.212-1.212zm55 0h10.576c.67 0 1.212.542 1.212 1.212v66.576c0 .67-.542 1.212-1.212 1.212H89.212c-.67 0-1.212-.542-1.212-1.212V38.212c0-.67.542-1.212 1.212-1.212z" fill="#F89700"/></g></svg><svg xmlns="http://www.w3.org/2000/svg" xmlns:xlink="http://www.w3.org/1999/xlink" y="4185" width="135" height="135"><g fill="none" fill-rule="evenodd"><path d="M46.66 53.406l41.945-4.804a11.953 11.953 0 0112.363 7.205 8.932 8.932 0 01-4.732 11.712L70.233 78.557l-9.303-1.995-.977 6.358-4.295 1.823c-7.178 3.047-15.466-.302-18.513-7.48l-1.85-4.357c-3.04-7.162.302-15.432 7.463-18.471a14.087 14.087 0 013.901-1.029z" fill="#FFB100"/><path d="M28.982 35.828l17.916-7.605a4.344 4.344 0 015.697 2.302L66.532 63.36a4.344 4.344 0 01-2.301 5.697l-17.917 7.605a4.344 4.344 0 01-5.696-2.302L26.68 41.525a4.344 4.344 0 012.302-5.697zm15.194 58.93l62.457-26.512a2.172 2.172 0 012.848 1.15l1.153 2.717a2.172 2.172 0 01-1.151 2.848l-62.457 26.511a2.172 2.172 0 01-2.848-1.15l-1.153-2.716a2.172 2.172 0 011.15-2.848z" fill="#FFB100"/><path d="M39.475 80.904l17.818-7.564a8.689 8.689 0 015.047-.532l7.523 1.458c1.754.34 3.57.148 5.214-.55l27.706-11.76a3.258 3.258 0 014.272 1.726l.304.716a3.258 3.258 0 01-1.726 4.273L75.529 81.449a8.976 8.976 0 01-6.913.042l-6.03-2.473 1.447 3.41a3.59 3.59 0 01-1.902 4.708l-16.956 7.197a3.258 3.258 0 01-4.272-1.726l-3.154-7.431a3.258 3.258 0 011.726-4.272z" fill="#F89700"/><ellipse stroke="#FFB100" stroke-width="7.181" fill="#F89700" transform="rotate(-23 96.818 80.712)" cx="96.818" cy="80.712" rx="9.211" ry="9.52"/><ellipse stroke="#FFB100" stroke-width="7.181" fill="#F89700" transform="rotate(-23 55.283 98.342)" cx="55.283" cy="98.342" rx="9.211" ry="9.52"/><path d="M46.187 40.412l8.325-3.534a1.795 1.795 0 012.354.951l1.448 3.41a1.795 1.795 0 01-.951 2.354l-8.325 3.534a1.795 1.795 0 01-2.354-.951l-1.448-3.41a1.795 1.795 0 01.951-2.354zm21.856 17.012l-.63-7.211a1.795 1.795 0 011.631-1.945l3.69-.323a1.795 1.795 0 011.945 1.632l.631 7.211a1.795 1.795 0 01-1.632 1.945l-3.69.323a1.795 1.795 0 01-1.945-1.632zm-15.253-2.96l5.443-7.222a1.795 1.795 0 012.514-.354l2.958 2.23c.792.596.95 1.722.354 2.514l-5.443 7.223a1.795 1.795 0 01-2.514.353l-2.958-2.23a1.795 1.795 0 01-.354-2.514z" fill="#F89700"/></g></svg><svg xmlns="http://www.w3.org/2000/svg" xmlns:xlink="http://www.w3.org/1999/xlink" y="4320" width="135" height="135"><g fill="none" fill-rule="evenodd"><path d="M30.972 76.484C24.332 71.844 20 64.22 20 55.603 20 41.463 31.662 30 46.048 30c8.898 0 16.753 4.384 21.452 11.075C72.2 34.385 80.054 30 88.952 30 103.338 30 115 41.463 115 55.603c0 8.024-3.756 15.187-9.635 19.881l-30.589 27.914a9.977 9.977 0 01-13.33.096l-30.474-27.01z" fill="#FFB100"/><rect fill="#EA8D00" x="55.625" y="49.813" width="8.313" height="19" rx="4.156"/><rect fill="#EA8D00" x="73.438" y="49.813" width="8.313" height="19" rx="4.156"/><path d="M75.539 74.705a2 2 0 112.696 2.955 6.949 6.949 0 01-.296.251 15.145 15.145 0 01-8.04 3.285c-3.705.369-7.496-.673-11.192-3.406a2 2 0 112.378-3.216c2.898 2.143 5.7 2.912 8.417 2.642a11.294 11.294 0 003.9-1.142 11.036 11.036 0 002.019-1.27 3.85 3.85 0 00.118-.1z" fill="#F89700" fill-rule="nonzero"/></g></svg><svg xmlns="http://www.w3.org/2000/svg" xmlns:xlink="http://www.w3.org/1999/xlink" y="4455" width="135" height="135"><g fill="none" fill-rule="evenodd"><path d="M104.481 64.237l-3.342 35.646a4.89 4.89 0 01-4.865 4.438 4.89 4.89 0 01-4.865-4.438l-1.923-20.51L69.378 99.67a13.76 13.76 0 01-6.145 3.59 13.58 13.58 0 01-5.278 1.06H35.721c-7.533 0-13.639-6.118-13.639-13.665 0-7.548 6.106-13.666 13.64-13.666 1.309 0 2.29.983 2.29 2.195v1.093c0 1.212.98 2.195 2.19 2.195h9.618a8.645 8.645 0 006.552-3.008L97.264 31.96a2.187 2.187 0 013.178-.148l.188.185 8.263 8.28c5.362 5.372 5.378 14.078.036 19.471l-4.448 4.49z" fill="#F89700" fill-rule="nonzero"/><path d="M100.728 40.911l.007.006a3.276 3.276 0 01.404 4.616l-8.542 10.18a3.276 3.276 0 01-4.616.404l-.007-.006a3.276 3.276 0 01-.404-4.616l8.543-10.18a3.276 3.276 0 014.615-.404zM37.332 87.286v.01a3.276 3.276 0 01-3.276 3.275h-2.167a3.276 3.276 0 01-3.277-3.276v-.009a3.276 3.276 0 013.277-3.276h2.167a3.276 3.276 0 013.276 3.276z" fill="#FFB100"/></g></svg><svg xmlns="http://www.w3.org/2000/svg" xmlns:xlink="http://www.w3.org/1999/xlink" y="4590" width="135" height="135"><g fill="none" fill-rule="evenodd"><path d="M34.894 27.644h66.212c6.614 0 11.976 5.362 11.976 11.976 0 6.614-5.362 11.976-11.976 11.976H34.894c-6.614 0-11.976-5.362-11.976-11.976 0-6.614 5.362-11.976 11.976-11.976z" fill="#F89700"/><ellipse fill="#FFB100" cx="104.115" cy="61.448" rx="10.32" ry="10.03"/><ellipse fill="#FFB100" cx="31.521" cy="61.448" rx="10.32" ry="10.03"/><path d="M67.818 20.988c19.85 0 35.941 16.092 35.941 35.941v30.333c0 9.239-7.489 16.727-16.727 16.727H48.604c-9.238 0-16.727-7.488-16.727-16.727V56.93c0-19.85 16.092-35.94 35.941-35.94z" fill="#FFB100"/><path d="M58.823 47a3.823 3.823 0 013.822 3.823v6.321a3.823 3.823 0 01-7.645 0v-6.321A3.823 3.823 0 0158.823 47zm18 0a3.823 3.823 0 013.822 3.823v6.321a3.823 3.823 0 01-7.645 0v-6.321A3.823 3.823 0 0176.823 47zM62.246 64.56H73.39c7.732 0 14 6.269 14 14v29.185c0 3.455-2.8 6.255-6.254 6.255H54.5a6.255 6.255 0 01-6.255-6.255V78.561c0-7.732 6.268-14 14-14z" fill="#F89700"/><path d="M54.534 40.27a4.8 4.8 0 01-5.533-7.845c3.91-2.759 8.437-3.474 13.152-2.126a4.8 4.8 0 11-2.64 9.23c-1.957-.56-3.475-.32-4.979.74zm32.78-3.023a4.8 4.8 0 11-5.533 7.845c-1.504-1.06-3.022-1.3-4.98-.74a4.8 4.8 0 11-2.64-9.23c4.716-1.349 9.242-.633 13.153 2.125z" fill="#F89700" fill-rule="nonzero"/><path d="M60.04 79.432a1.68 1.68 0 011.92-2.757c1.51 1.051 3.443 1.645 5.502 1.645 2.089 0 4.047-.611 5.565-1.69a1.68 1.68 0 111.946 2.74c-2.093 1.486-4.732 2.31-7.511 2.31-2.739 0-5.343-.8-7.422-2.248z" fill="#FFB100" fill-rule="nonzero"/></g></svg><svg xmlns="http://www.w3.org/2000/svg" xmlns:xlink="http://www.w3.org/1999/xlink" y="4725" width="135" height="135"><g fill="none" fill-rule="evenodd"><path d="M15.186 59.016L66.5 64.482l52.314-5.47a1.98 1.98 0 012.186 1.97 3.084 3.084 0 01-2.077 2.914L66.5 82 15.073 63.908A3.103 3.103 0 0113 60.981a1.976 1.976 0 012.186-1.965z" fill="#FFB100"/><path d="M48 84a3 3 0 013 3v7a3 3 0 01-6 0v-7a3 3 0 013-3zm7 0a3 3 0 013 3v7a3 3 0 01-6 0v-7a3 3 0 013-3zm24 0a3 3 0 013 3v7a3 3 0 01-6 0v-7a3 3 0 013-3zm7 0a3 3 0 013 3v7a3 3 0 01-6 0v-7a3 3 0 013-3z" fill="#F89700"/><ellipse fill="#FFB100" cx="66.568" cy="69.862" rx="19.952" ry="20.596"/><path d="M67 31c.943 0 1.728.721 1.809 1.66l2.765 32.358a4.59 4.59 0 11-9.148 0l2.765-32.357A1.814 1.814 0 0167 31z" fill="#FFB100"/><circle stroke="#FFB100" stroke-width="4.245" fill="#F89700" cx="29.5" cy="78.5" r="10.5"/><circle stroke="#FFB100" stroke-width="4.245" fill="#F89700" cx="104.5" cy="78.5" r="10.5"/><circle fill="#FFB100" cx="29.5" cy="78.5" r="3.5"/><circle fill="#FFB100" cx="104.5" cy="78.5" r="3.5"/><circle fill="#F89700" cx="67" cy="74" r="6"/><path d="M61.269 58H72.73c.919 0 1.772.475 2.256 1.256l.77 1.244a1.638 1.638 0 01-1.392 2.5h-14.73a1.638 1.638 0 01-1.392-2.5l.77-1.244A2.653 2.653 0 0161.269 58z" fill="#F89700"/></g></svg><svg xmlns="http://www.w3.org/2000/svg" xmlns:xlink="http://www.w3.org/1999/xlink" y="4860" width="135" height="135"><g fill="none" fill-rule="evenodd"><path d="M83 83v3.864A3.136 3.136 0 0179.864 90h-6.728A3.136 3.136 0 0170 86.864V83h-5v6.864A3.136 3.136 0 0161.864 93h-6.728A3.136 3.136 0 0152 89.864V83H37.5a9.5 9.5 0 01-9.5-9.5c0-4.381 2.966-8.07 7-9.168V50.878C35 33.272 49.272 19 66.878 19h1.244C85.728 19 100 33.272 100 50.878v13.454c4.034 1.098 7 4.787 7 9.168a9.5 9.5 0 01-9.5 9.5H83z" fill="#FFB100"/><path d="M66 107.015h3v-3.879A3.136 3.136 0 0172.136 100h6.728A3.136 3.136 0 0182 103.136v3.466c4.106-1.167 7.015-4.657 7.015-8.602v-7a3.985 3.985 0 017.97 0v7c0 9.356-8.065 16.985-17.985 16.985H56c-9.92 0-17.985-7.63-17.985-16.985v-7a3.985 3.985 0 017.97 0v7c0 3.945 2.91 7.435 7.015 8.602v-3.466A3.136 3.136 0 0156.136 100h6.728A3.136 3.136 0 0166 103.136v3.88z" fill="#FFB100" fill-rule="nonzero"/><path d="M55.5 55a3.5 3.5 0 013.5 3.5v10a3.5 3.5 0 01-7 0v-10a3.5 3.5 0 013.5-3.5zm25 0a3.5 3.5 0 013.5 3.5v10a3.5 3.5 0 01-7 0v-10a3.5 3.5 0 013.5-3.5zM69.512 65.536l3.789 11.366A1.594 1.594 0 0171.789 79H64.21a1.594 1.594 0 01-1.512-2.098l3.789-11.366a1.594 1.594 0 013.024 0z" fill="#FFD300"/></g></svg><svg xmlns="http://www.w3.org/2000/svg" xmlns:xlink="http://www.w3.org/1999/xlink" y="4995" width="135" height="135"><g fill="none" fill-rule="evenodd"><path d="M92.562 28.094l12.988 12.988a8.316 8.316 0 010 11.76l-53.294 53.293a8.316 8.316 0 01-11.76 0L27.508 93.147a8.316 8.316 0 010-11.76L80.8 28.094a8.316 8.316 0 0111.76 0z" fill="#FFB100"/><path d="M106.46 94.765l-12.988 12.988a8.316 8.316 0 01-11.76 0L26.296 52.34a8.316 8.316 0 010-11.761L39.285 27.59a8.316 8.316 0 0111.76 0l55.415 55.414a8.316 8.316 0 010 11.761z" fill="#FFB100"/><path d="M72.039 50.867l10.726 10.726a8.316 8.316 0 010 11.76L72.039 84.08a8.316 8.316 0 01-11.76 0L49.551 73.354a8.316 8.316 0 010-11.76l10.726-10.727a8.316 8.316 0 0111.76 0z" fill="#FFD300"/><circle fill="#F89700" transform="rotate(45 98.288 45.962)" cx="98.288" cy="45.962" r="4"/><circle fill="#F89700" transform="rotate(45 86.974 34.648)" cx="86.974" cy="34.648" r="4"/><circle fill="#F89700" transform="rotate(45 84.853 48.083)" cx="84.853" cy="48.083" r="4"/><circle fill="#F89700" transform="rotate(-46 45.061 35.32)" cx="45.061" cy="35.32" r="4"/><circle fill="#F89700" transform="rotate(-46 33.947 46.829)" cx="33.947" cy="46.829" r="4"/><circle fill="#F89700" transform="rotate(-46 47.417 48.716)" cx="47.417" cy="48.716" r="4"/><circle fill="#F89700" transform="scale(-1 1) rotate(-46 0 320.218)" cx="98.324" cy="88.582" r="4"/><circle fill="#F89700" transform="scale(-1 1) rotate(-46 0 304.218)" cx="86.814" cy="99.696" r="4"/><circle fill="#F89700" transform="scale(-1 1) rotate(-46 0 286.303)" cx="84.928" cy="86.226" r="4"/><circle fill="#F89700" transform="scale(1 -1) rotate(-45 -193.076 0)" cx="45.935" cy="99.002" r="4"/><circle fill="#F89700" transform="scale(1 -1) rotate(-45 -177.076 0)" cx="34.622" cy="87.688" r="4"/><circle fill="#F89700" transform="scale(1 -1) rotate(-45 -158.52 0)" cx="48.057" cy="85.567" r="4"/></g></svg><svg xmlns="http://www.w3.org/2000/svg" xmlns:xlink="http://www.w3.org/1999/xlink" y="5130" width="135" height="135"><g fill="none" fill-rule="evenodd"><path d="M59.418 33h44.164A6.418 6.418 0 01110 39.418v45.164A6.418 6.418 0 01103.582 91H59.418A6.418 6.418 0 0153 84.582V39.418A6.418 6.418 0 0159.418 33z" fill="#FFC200"/><path d="M30.418 42h52.164A6.418 6.418 0 0189 48.418v38.164A6.418 6.418 0 0182.582 93H30.418A6.418 6.418 0 0124 86.582V48.418A6.418 6.418 0 0130.418 42z" fill="#FFC200"/><path d="M24 58.967h86v33.615A6.418 6.418 0 01103.582 99H30.418A6.418 6.418 0 0124 92.582V58.967z" fill="#F89700"/><ellipse fill="#FFC200" cx="66.81" cy="71.951" rx="22.861" ry="22.721"/><ellipse fill="#F89700" cx="66.805" cy="71.908" rx="15.638" ry="15.543"/><path d="M95.279 38h5.442A4.279 4.279 0 01105 42.279v5.442A4.279 4.279 0 01100.721 52H95.28A4.279 4.279 0 0191 47.721V42.28A4.279 4.279 0 0195.279 38z" fill="#F89700"/><path d="M63.209 38h8.582A3.209 3.209 0 0175 41.209v1.582A3.209 3.209 0 0171.791 46H63.21A3.209 3.209 0 0160 42.791V41.21A3.209 3.209 0 0163.209 38z" fill="#FFE900"/></g></svg><svg xmlns="http://www.w3.org/2000/svg" xmlns:xlink="http://www.w3.org/1999/xlink" y="5265" width="135" height="135"><g fill="none" fill-rule="evenodd"><path d="M63.436 37.658h9.27a3.538 3.538 0 013.538 3.538v70.266A3.538 3.538 0 0172.706 115h-9.27a3.538 3.538 0 01-3.538-3.538V41.196a3.538 3.538 0 013.538-3.538z" fill="#F89700"/><path d="M62.267 35.278h11.636a3.538 3.538 0 013.538 3.539v13.14a2.359 2.359 0 01-2.359 2.36H61.088a2.359 2.359 0 01-2.36-2.36v-13.14a3.538 3.538 0 013.539-3.539z" fill="#FFB100"/><path d="M56.533 25.76h26.716a4.717 4.717 0 014.717 4.717V37.7a4.717 4.717 0 01-4.717 4.718H52.92a4.717 4.717 0 01-4.718-4.718v-3.61c0-4.6 3.73-8.33 8.33-8.33z" fill="#FFB100"/><path d="M53.302 25.76H75.9a4.717 4.717 0 011.839 9.061c-11.966 5.065-20.355 7.597-25.168 7.597-3.87 0-7.56 2.352-11.074 7.057A4.717 4.717 0 0133 46.652v-.59c0-11.213 9.09-20.303 20.302-20.303zM88.006 21h9.277A4.717 4.717 0 01102 25.717V42.46a4.717 4.717 0 01-4.717 4.717h-9.277a4.717 4.717 0 01-4.718-4.717V25.717A4.717 4.717 0 0188.006 21z" fill="#FFB100"/></g></svg><svg xmlns="http://www.w3.org/2000/svg" xmlns:xlink="http://www.w3.org/1999/xlink" y="5400" width="135" height="135"><g fill="none" fill-rule="evenodd"><path d="M47.157 25.762l64.021 22.044a5.412 5.412 0 013.355 6.88l-18.614 54.06a5.412 5.412 0 01-6.88 3.356L25.018 90.057a5.412 5.412 0 01-3.355-6.879l18.614-54.06a5.412 5.412 0 016.88-3.356z" fill="#FFB100"/><path d="M79.208 36.798l31.97 11.008a5.412 5.412 0 013.355 6.88l-18.614 54.06a5.412 5.412 0 01-6.88 3.356l-31.97-11.008 22.14-64.296zM37.03 81.627l10.179 3.505c.621.214.952.892.738 1.514l-3.16 9.178a1.19 1.19 0 01-1.514.738l-10.178-3.505a1.19 1.19 0 01-.739-1.513l3.16-9.178a1.19 1.19 0 011.514-.739zM55.532 29l10.103 3.48c.622.214.953.891.738 1.513l-3.15 9.152a1.19 1.19 0 01-1.514.738l-10.103-3.479a1.19 1.19 0 01-.738-1.513l3.15-9.152a1.19 1.19 0 011.514-.738z" fill="#F89700"/><path d="M92.485 79.546l-1.687 4.635a2.165 2.165 0 01-2.775 1.294l-8.285-3.015a2.165 2.165 0 01-1.294-2.775l1.688-4.636-2.2-.8a2.165 2.165 0 01-.338-3.912l11.418-6.553a2.165 2.165 0 013.11 1.132l4.535 12.359a2.165 2.165 0 01-2.773 2.78l-1.399-.51z" fill="#FFB100"/></g></svg><svg xmlns="http://www.w3.org/2000/svg" xmlns:xlink="http://www.w3.org/1999/xlink" y="5535" width="135" height="135"><g fill="none" fill-rule="evenodd"><path d="M66.776 108c19.207 0 34.776-16.009 34.776-35.756C101.552 52.496 85.982 23 66.776 23 47.57 23 32 52.496 32 72.244 32 91.99 47.57 108 66.776 108z" fill="#FFB100"/><path d="M35.18 54.86c2.966-8.704 7.839-17.275 13.893-23.331a14.509 14.509 0 013.44 9.426c0 7.915-6.242 14.332-13.942 14.332-1.17 0-2.306-.148-3.391-.427zm46.367-25.986c8.256 6.711 14.738 18.219 17.897 29.427-3.044 2.836-7.082 4.563-11.514 4.563-9.47 0-17.147-7.891-17.147-17.626 0-7.415 4.455-13.76 10.764-16.364zM95.242 92.79c-5.345 7.814-13.657 13.328-23.253 14.811a14.655 14.655 0 01-.886-5.037c0-7.915 6.243-14.331 13.943-14.331 4.025 0 7.651 1.752 10.196 4.556z" fill="#F89700"/><ellipse fill="#F89700" cx="53.795" cy="80.655" rx="12.18" ry="12.519"/></g></svg><svg xmlns="http://www.w3.org/2000/svg" xmlns:xlink="http://www.w3.org/1999/xlink" y="5670" width="135" height="135"><g fill="none" fill-rule="evenodd"><path d="M80.685 57.837l3.016.98 8.427-15.77a7.87 7.87 0 0110.994-3.036l.105.063a8.153 8.153 0 012.79 11.188L94.043 71.187 88.08 89.542a16.234 16.234 0 01-4.258 6.77v9.113a5.63 5.63 0 01-5.63 5.63H55.485a5.63 5.63 0 01-5.63-5.63v-11.49a16.214 16.214 0 01-4.743-4.036L28.077 73.435a8.94 8.94 0 01.231-13.072l.145-.13.105-.093a9.247 9.247 0 0113.047.881l3.775 4.323 2.421-7.451 2.174-24.84a8.153 8.153 0 018.833-7.412l.121.011a7.87 7.87 0 017.11 8.919l-2.452 17.71 3.051.992 8.145-25.069a8.153 8.153 0 0110.274-5.234l.086.027A7.844 7.844 0 0190.05 33.25l-9.364 24.588z" fill="#FFB100"/><path d="M50.324 71.556a2.407 2.407 0 112.166-4.298c9.308 4.689 13.82 12.168 13.248 22.062a2.407 2.407 0 11-4.805-.278c.459-7.94-2.982-13.644-10.609-17.486z" fill="#F89700" fill-rule="nonzero"/></g></svg><svg xmlns="http://www.w3.org/2000/svg" xmlns:xlink="http://www.w3.org/1999/xlink" y="5805" width="135" height="135"><g fill="none" fill-rule="evenodd"><path d="M69.54 84.67c2.482-4.3-5.149-22.848-17.333-30.008-12.185-7.16-32.555-3.643-34.655-.006-2.1 3.636 5.148 24.064 17.333 30.008 12.185 5.943 32.172 4.306 34.654.006z" fill="#F89700"/><path d="M41.93 51.211h38.469c5.367 0 9.718 4.351 9.718 9.719 0 5.367-4.351 9.718-9.718 9.718h-38.47c-5.367 0-9.718-4.351-9.718-9.718a9.719 9.719 0 019.719-9.719z" fill="#FFB100"/><path d="M76.673 51.211H97.77a9.719 9.719 0 019.719 9.719c0 5.367-4.351 9.718-9.719 9.718H76.673c-5.367 0-9.718-4.351-9.718-9.718 0-5.368 4.35-9.719 9.718-9.719z" fill="#FFB100"/><path d="M67.988 51.721l14.918-14.918c3.796-3.795 9.949-3.795 13.744 0s3.795 9.948 0 13.744L81.732 65.465c-3.795 3.795-9.948 3.795-13.744 0-3.795-3.795-3.795-9.949 0-13.744z" fill="#FFB100"/><path d="M69.628 51.721c3.795 3.795 3.795 9.949 0 13.744-3.796 3.795-9.949 3.795-13.744 0L40.966 50.547c-3.796-3.796-3.796-9.949 0-13.744 3.795-3.795 9.948-3.795 13.743 0L69.628 51.72z" fill="#FFB100"/><path d="M78.603 60.768a9.717 9.717 0 01-9.718 9.718 9.717 9.717 0 01-9.718-9.718V33.88a9.717 9.717 0 019.718-9.718 9.717 9.717 0 019.718 9.718v26.888z" fill="#FFB100"/><path d="M82.49 66.626c0 7.514-6.091 13.605-13.605 13.605S55.279 74.14 55.279 66.626V55.233c0-7.514 6.092-13.605 13.606-13.605S82.49 47.719 82.49 55.233v11.393z" fill="#FFB100"/><path d="M68.24 64.815c7.106 0 12.867.678 12.867-6.478S75.347 45.38 68.24 45.38c-7.106 0-12.866 5.801-12.866 12.957 0 7.156 5.76 6.478 12.866 6.478z" fill="#FFE900"/><path d="M59.994 100.22c-2.482-4.3 5.148-22.848 17.333-30.009 12.184-7.16 32.555-3.643 34.654-.006 2.1 3.636-5.148 24.065-17.333 30.008-12.185 5.944-32.172 4.306-34.654.007z" fill="#F89700"/></g></svg><svg xmlns="http://www.w3.org/2000/svg" xmlns:xlink="http://www.w3.org/1999/xlink" y="5940" width="135" height="135"><g fill="none" fill-rule="evenodd"><path fill="#976334" d="M49.605 80.682l15.22 8.437-11.733 4.266z"/><path d="M90.209 28.999c15.38 8.525 20.936 27.903 12.41 43.283l-2.617 4.723c-8.525 15.38-27.904 20.936-43.283 12.41-15.38-8.524-20.937-27.903-12.412-43.283l2.618-4.722C55.45 26.03 74.83 20.474 90.21 28.999z" fill="#F89700"/><path d="M59.337 97.047l-8.243 16.362a3.77 3.77 0 01-5.195 1.602l-5.152-2.856a3.77 3.77 0 01-1.395-5.254l9.562-15.752-.145.053-3.487-12.703 26.687 14.793-12.62 3.774-.012-.019z" fill="#D78300"/><ellipse fill="#FFB100" transform="rotate(29 47.138 43.48)" cx="47.138" cy="43.48" rx="17.298" ry="17.4"/></g></svg><svg xmlns="http://www.w3.org/2000/svg" xmlns:xlink="http://www.w3.org/1999/xlink" y="6075" width="135" height="135"><g fill="none" fill-rule="evenodd"><rect fill="#FFB100" x="38.038" y="49.462" width="57.692" height="53.538" rx="4"/><path d="M67.537 49.462h24.194a4 4 0 014 4v20.16l-56.449 15.04c-.414.11-.829.203-1.244.277V57.321l29.5-7.86z" fill="#F89700" opacity=".67"/><rect fill="#FFB100" transform="rotate(-15 65.766 54.26)" x="20.574" y="38.964" width="90.385" height="30.593" rx="15.297"/><rect fill="#FFB100" transform="rotate(-15 61.99 39.335)" x="33.143" y="28.819" width="57.692" height="21.033" rx="10.516"/></g></svg><svg xmlns="http://www.w3.org/2000/svg" xmlns:xlink="http://www.w3.org/1999/xlink" y="6210" width="135" height="135"><g fill="none" fill-rule="evenodd"><path d="M17.958 45.481l41.739 4.584-22.808 17.92c-5.312 4.173-13.002 3.25-17.175-2.062a12.232 12.232 0 01-2.08-3.98l-3.588-11.738a3.672 3.672 0 013.912-4.724zm98.855 0l-41.739 4.584 22.808 17.92c5.312 4.173 13.002 3.25 17.176-2.062a12.232 12.232 0 002.079-3.98l3.588-11.738a3.672 3.672 0 00-3.912-4.724z" fill="#F89700"/><path d="M61.339 29.014l23.599 13.081a1.641 1.641 0 01.352 2.608c-4.865 4.767-12.42 5.795-18.551 2.396-6.132-3.399-9.263-10.35-7.798-17.002a1.641 1.641 0 012.398-1.083z" fill="#FFB100" fill-rule="nonzero"/><path d="M67 36c18.225 0 33 14.775 33 33v18.906C100 98.451 91.451 107 80.906 107H53.094C42.549 107 34 98.451 34 87.906V69c0-18.225 14.775-33 33-33z" fill="#FFB100"/><rect fill="#FB9100" x="41" y="63" width="8" height="14" rx="4"/><rect fill="#FB9100" x="86" y="63" width="8" height="14" rx="4"/><path d="M61.5 69h12C80.404 69 86 74.596 86 81.5v4.422A8.078 8.078 0 0177.922 94H57.078A8.078 8.078 0 0149 85.922V81.5C49 74.596 54.596 69 61.5 69z" fill="#FFC100"/><rect fill="#FB9100" x="57" y="76" width="8" height="12" rx="4"/><rect fill="#FB9100" x="70" y="76" width="8" height="12" rx="4"/></g></svg><svg xmlns="http://www.w3.org/2000/svg" xmlns:xlink="http://www.w3.org/1999/xlink" y="6345" width="135" height="135"><g fill="#F89700" fill-rule="evenodd"><path d="M49.033 71.781l-9.642 9.01a3.95 3.95 0 01-6.647-2.887v-6.456C27.159 70.138 23 65.126 23 59.141v-15.5C23 36.658 28.66 31 35.64 31h30.214c6.98 0 12.64 5.66 12.64 12.64v15.501c0 6.981-5.66 12.64-12.64 12.64h-16.82z" opacity=".6"/><path d="M82.996 93.425h-21.18c-6.98 0-12.64-5.659-12.64-12.64V61.612c0-6.981 5.66-12.64 12.64-12.64H99.36c6.98 0 12.64 5.659 12.64 12.64v19.173c0 6.375-4.72 11.648-10.856 12.515v7.752a3.95 3.95 0 01-6.615 2.916L82.996 93.425z"/></g></svg><svg xmlns="http://www.w3.org/2000/svg" xmlns:xlink="http://www.w3.org/1999/xlink" y="6480" width="135" height="135"><g fill="none" fill-rule="evenodd"><path d="M67.68 28.28c17.745 0 32.13 14.385 32.13 32.13 0 .562-.015 1.124-.044 1.685l-.687 13.069c-.856 16.31-14.33 29.095-30.663 29.095-16.419 0-30.048-12.684-31.225-29.06l-.944-13.144c-1.248-17.36 11.814-32.446 29.175-33.693a31.515 31.515 0 012.259-.082z" fill="#F89700"/><path d="M46 75.611h45.36c9.742 0 17.64 7.898 17.64 17.64v.109c0 9.742-7.898 17.64-17.64 17.64H46c-9.742 0-17.64-7.898-17.64-17.64v-.109c0-9.742 7.898-17.64 17.64-17.64z" fill="#F89700"/><path d="M67.967 34.599c15.34 0 27.775 12.435 27.775 27.775 0 .88-.042 1.759-.125 2.635l-1.345 14.11C92.98 92.68 81.59 103.036 67.967 103.036S42.954 92.68 41.662 79.12l-1.345-14.11c-1.455-15.27 9.745-28.83 25.015-30.285a27.775 27.775 0 012.635-.125z" fill="#FFB100"/><path d="M60.908 55.019h.024a3.348 3.348 0 013.348 3.347v5.101a3.348 3.348 0 01-3.348 3.348h-.024a3.348 3.348 0 01-3.348-3.348v-5.1a3.348 3.348 0 013.348-3.348zm13.16 0h.024a3.348 3.348 0 013.348 3.347v5.101a3.348 3.348 0 01-3.348 3.348h-.024a3.348 3.348 0 01-3.348-3.348v-5.1a3.348 3.348 0 013.348-3.348z" fill="#F89700"/><path d="M60.337 75.692a1.68 1.68 0 112.175-2.56 8.137 8.137 0 005.29 1.943 8.139 8.139 0 005.354-1.997 1.68 1.68 0 112.2 2.539 11.498 11.498 0 01-7.554 2.818c-2.77 0-5.393-.983-7.465-2.743z" fill="#F89700" fill-rule="nonzero"/><ellipse fill="#FFB100" cx="40.548" cy="66.501" rx="10.031" ry="9.971"/><ellipse fill="#FFB100" cx="94.025" cy="66.501" rx="10.031" ry="9.971"/><path d="M45.16 20h6.72c11.134 0 20.16 9.026 20.16 20.16v.124c0 11.135-9.026 20.16-20.16 20.16h-6.72C34.026 60.444 25 51.42 25 40.284v-.124C25 29.026 34.026 20 45.16 20z" fill="#F89700"/></g></svg><svg xmlns="http://www.w3.org/2000/svg" xmlns:xlink="http://www.w3.org/1999/xlink" y="6615" width="135" height="135"><g fill="none" fill-rule="evenodd"><path d="M57.835 64.402L47.511 84.708a3.671 3.671 0 003.272 5.335h7.052l-10.379 18.75a3.671 3.671 0 005.492 4.656l29.623-23.474a3.671 3.671 0 00-2.28-6.549h-6.075L89.41 61.094l-31.574 3.308z" fill="#FFB100"/><path d="M64.037 75.128h-24.14a5.767 5.767 0 01-.086 0C30.526 75.128 23 67.348 23 57.753c0-9.597 7.526-17.376 16.81-17.376.838 0 1.662.064 2.467.186C45.587 29.799 55.336 22 66.847 22c11.525 0 21.284 7.819 24.582 18.604.886-.15 1.796-.227 2.723-.227 9.285 0 16.811 7.78 16.811 17.376s-7.526 17.375-16.81 17.375c-.119 0-.236-.001-.354-.004-.07.003-.139.004-.208.004H69.656a25.226 25.226 0 01-5.619 0z" fill="#F89700"/></g></svg><svg xmlns="http://www.w3.org/2000/svg" xmlns:xlink="http://www.w3.org/1999/xlink" y="6750" width="135" height="135"><g fill="none" fill-rule="evenodd"><path d="M13.287 49h9.726a2.287 2.287 0 012.287 2.287v7.554a2.287 2.287 0 01-2.287 2.287h-9.726A2.287 2.287 0 0111 58.841v-7.554A2.287 2.287 0 0113.287 49zm97.7 0h9.726A2.287 2.287 0 01123 51.287v7.554a2.287 2.287 0 01-2.287 2.287h-9.726a2.287 2.287 0 01-2.287-2.287v-7.554A2.287 2.287 0 01110.987 49z" fill="#F89700"/><path d="M29.76 47.244h20.38c5.367 0 9.719 4.351 9.719 9.72v24.868c0 5.367-4.352 9.719-9.72 9.719H29.761c-5.368 0-9.72-4.352-9.72-9.72V56.964c0-5.368 4.352-9.72 9.72-9.72z" stroke="#F89700" stroke-width="5.717" fill="#FFB100"/><path d="M56.903 55.807L25.5 87.21a6.848 6.848 0 01-2.6-5.378V56.963a6.86 6.86 0 016.86-6.86h20.38a6.863 6.863 0 016.763 5.704z" fill="#FFD300"/><path d="M83.66 48.347h20.38c5.367 0 9.719 4.351 9.719 9.719v24.868c0 5.368-4.352 9.72-9.72 9.72H83.661c-5.368 0-9.72-4.352-9.72-9.72V58.066c0-5.368 4.352-9.72 9.72-9.72z" stroke="#F89700" stroke-width="5.717" fill="#FFB100"/><path d="M109.557 53.988a6.83 6.83 0 011.343 4.078v16.838l-14.89 14.89H83.66a6.86 6.86 0 01-6.13-3.778l32.027-32.028z" fill="#FFD300"/><path fill="#F89700" d="M59.2 52.308h15.4v12.128H59.2z"/></g></svg><svg xmlns="http://www.w3.org/2000/svg" xmlns:xlink="http://www.w3.org/1999/xlink" y="6885" width="135" height="135"><g fill="none" fill-rule="evenodd"><ellipse stroke="#F89700" stroke-width="6.365" stroke-linecap="round" stroke-linejoin="round" cx="96.528" cy="81.042" rx="18.472" ry="18.958"/><ellipse stroke="#F89700" stroke-width="6.365" stroke-linecap="round" stroke-linejoin="round" cx="38.472" cy="81.042" rx="18.472" ry="18.958"/><path d="M81.222 45.833h15.315" stroke="#F89700" stroke-width="6.365" stroke-linecap="round" stroke-linejoin="round"/><ellipse fill="#F89700" cx="97.885" cy="43.899" rx="5.052" ry="5.185"/><path d="M38.472 81.042h21.646m-21.868-.167l14.472-30.708L38.25 80.875zm58.806.708l-15.834-35.75m-13.179 35.75L48.252 38.25m16.33 43.198l16.625-31.281-16.625 31.28z" stroke="#FFB100" stroke-width="6.365" stroke-linecap="round" stroke-linejoin="round"/><path d="M42.694 36.625H53.46" stroke="#F89700" stroke-width="6.365" stroke-linecap="round" stroke-linejoin="round"/><ellipse fill="#FFB100" cx="66.444" cy="80.5" rx="7.886" ry="8.093"/><path d="M52.132 45.795h28.68" stroke="#FFB100" stroke-width="6.365" stroke-linecap="round" stroke-linejoin="round"/></g></svg><svg xmlns="http://www.w3.org/2000/svg" xmlns:xlink="http://www.w3.org/1999/xlink" y="7020" width="135" height="135"><g fill="none" fill-rule="evenodd"><path d="M17 64h100a4 4 0 110 8H17a4 4 0 110-8z" fill="#FFC200"/><path d="M38.36 44h10.28A3.36 3.36 0 0152 47.36v40.28A3.36 3.36 0 0148.64 91H38.36A3.36 3.36 0 0135 87.64V47.36A3.36 3.36 0 0138.36 44zm-11 8h4.28A3.36 3.36 0 0135 55.36v25.28A3.36 3.36 0 0131.64 84h-4.28A3.36 3.36 0 0124 80.64V55.36A3.36 3.36 0 0127.36 52zm69.28-8a3.36 3.36 0 013.36 3.36v40.28A3.36 3.36 0 0196.64 91H86.36A3.36 3.36 0 0183 87.64V47.36A3.36 3.36 0 0186.36 44h10.28z" fill="#F89700"/><path d="M86.68 46h9.64c.928 0 1.68.752 1.68 1.68v3.64A1.68 1.68 0 0196.32 53h-9.64A1.68 1.68 0 0185 51.32v-3.64c0-.928.752-1.68 1.68-1.68zm-48 0h9.64c.928 0 1.68.752 1.68 1.68v3.64A1.68 1.68 0 0148.32 53h-9.64A1.68 1.68 0 0137 51.32v-3.64c0-.928.752-1.68 1.68-1.68zm-11 8h3.64c.928 0 1.68.752 1.68 1.68v3.64A1.68 1.68 0 0131.32 61h-3.64A1.68 1.68 0 0126 59.32v-3.64c0-.928.752-1.68 1.68-1.68z" fill="#FFC200"/><path d="M107.64 52a3.36 3.36 0 013.36 3.36v25.28a3.36 3.36 0 01-3.36 3.36h-4.28a3.36 3.36 0 01-3.36-3.36V55.36a3.36 3.36 0 013.36-3.36h4.28z" fill="#F89700"/><path d="M107.32 54c.928 0 1.68.752 1.68 1.68v3.64a1.68 1.68 0 01-1.68 1.68h-3.64a1.68 1.68 0 01-1.68-1.68v-3.64c0-.928.752-1.68 1.68-1.68h3.64z" fill="#FFC200"/><path d="M17 64h100a4 4 0 110 8H17a4 4 0 110-8z" fill="#F89700"/><path d="M38.36 44h10.28A3.36 3.36 0 0152 47.36v40.28A3.36 3.36 0 0148.64 91H38.36A3.36 3.36 0 0135 87.64V47.36A3.36 3.36 0 0138.36 44zm-11 8h4.28A3.36 3.36 0 0135 55.36v25.28A3.36 3.36 0 0131.64 84h-4.28A3.36 3.36 0 0124 80.64V55.36A3.36 3.36 0 0127.36 52zm69.28-8a3.36 3.36 0 013.36 3.36v40.28A3.36 3.36 0 0196.64 91H86.36A3.36 3.36 0 0183 87.64V47.36A3.36 3.36 0 0186.36 44h10.28zm11 8a3.36 3.36 0 013.36 3.36v25.28a3.36 3.36 0 01-3.36 3.36h-4.28a3.36 3.36 0 01-3.36-3.36V55.36a3.36 3.36 0 013.36-3.36h4.28z" fill="#F89700"/></g></svg><svg xmlns="http://www.w3.org/2000/svg" xmlns:xlink="http://www.w3.org/1999/xlink" y="7155" width="135" height="135"><g fill="#F89700" fill-rule="evenodd"><path d="M49.033 71.781l-9.642 9.01a3.95 3.95 0 01-6.647-2.887v-6.456C27.159 70.138 23 65.126 23 59.141v-15.5C23 36.658 28.66 31 35.64 31h30.214c6.98 0 12.64 5.66 12.64 12.64v15.501c0 6.981-5.66 12.64-12.64 12.64h-16.82z" opacity=".6"/><path d="M82.996 93.425h-21.18c-6.98 0-12.64-5.659-12.64-12.64V61.612c0-6.981 5.66-12.64 12.64-12.64H99.36c6.98 0 12.64 5.659 12.64 12.64v19.173c0 6.375-4.72 11.648-10.856 12.515v7.752a3.95 3.95 0 01-6.615 2.916L82.996 93.425z"/></g></svg><svg xmlns="http://www.w3.org/2000/svg" xmlns:xlink="http://www.w3.org/1999/xlink" y="7290" width="135" height="135"><g fill="none" fill-rule="evenodd"><ellipse stroke="#F89700" stroke-width="7.854" cx="67.094" cy="81.045" rx="30.787" ry="31.364"/><path d="M54.494 41.405a3.882 3.882 0 015.407.953l5.754 8.217a3.882 3.882 0 11-6.36 4.453l-5.754-8.217a3.882 3.882 0 01.953-5.406zm25.735 0a3.882 3.882 0 01.953 5.406l-5.754 8.217a3.882 3.882 0 11-6.36-4.453l5.754-8.217a3.882 3.882 0 015.407-.953z" fill="#F89700"/><path d="M70.552 50.075a3.927 3.927 0 01-6.716 0L50.43 27.963A3.927 3.927 0 0153.788 22h26.813a3.927 3.927 0 013.358 5.963L70.552 50.075z" fill="#FFB100"/><path d="M57.275 25.213h10.16a1.964 1.964 0 011.96 2.104l-1.1 15.346a1.964 1.964 0 01-3.648.858l-9.062-15.346a1.964 1.964 0 011.69-2.962z" fill="#FFD300"/><path d="M93.022 38.18l3.735-3.735a3.57 3.57 0 015.048 0l3.78 3.779a3.57 3.57 0 010 5.048l-3.736 3.735a3.57 3.57 0 01-5.048 0l-3.779-3.779a3.57 3.57 0 010-5.048z" fill="#FFB100"/><path d="M24.556 56.02l1.225-1.225a3.57 3.57 0 015.05 0l1.256 1.256a3.57 3.57 0 010 5.05l-1.225 1.224a3.57 3.57 0 01-5.05 0l-1.256-1.256a3.57 3.57 0 010-5.049z" fill="#FFB100" opacity=".864"/><path d="M53.982 88.115l3.735-3.734a3.57 3.57 0 015.049 0l3.778 3.778a3.57 3.57 0 010 5.05l-3.734 3.734a3.57 3.57 0 01-5.05 0l-3.778-3.779a3.57 3.57 0 010-5.049z" fill="#FFB100" opacity=".579"/></g></svg><svg xmlns="http://www.w3.org/2000/svg" y="7425" width="135" height="135"><g fill="none" fill-rule="evenodd"><path d="M107.633 72.886c-.27 12.382-2.799 20.639-9.675 26.895-7.031 6.397-19.919 10.619-30.972 10.619-10.95 0-16.283-3.342-25.484-13.727-.309-.348-3.642-4.042-4.683-5.235C29.84 83.441 26.31 77.242 26.31 70.223c0-11.663 4.721-19.535 15.115-27.838 5.089-4.065 7.751-6.023 11.223-8.01 4.898-2.802 9.59-4.328 14.337-4.328 1.71 0 3.407.104 5.085.311 2.809.346 3.99 3.771 1.992 5.775-2.67 2.677-4.186 6.257-4.186 10.079 0 7.94 6.542 14.395 14.636 14.395 2.263 0 4.446-.503 6.428-1.458a3.4 3.4 0 014.634 1.804c1.656 4.153 5.212 7.352 9.583 8.587a3.4 3.4 0 012.475 3.346z" fill="#FFB100" fill-rule="nonzero"/><ellipse fill="#FFB100" cx="87.565" cy="29.745" rx="4.81" ry="4.745"/><ellipse fill="#FFB100" cx="93.878" cy="45.665" rx="5.989" ry="5.909"/><path d="M67.248 86.007l4.484 2.589a3.4 3.4 0 011.244 4.644l-2.58 4.467a3.4 3.4 0 01-4.644 1.245l-4.484-2.59a3.4 3.4 0 01-1.244-4.644l2.58-4.467a3.4 3.4 0 014.644-1.244zm16.107-10.629a5.1 5.1 0 016.967 1.867l1.733 3.002a5.1 5.1 0 01-1.867 6.966l-3.021 1.745A5.1 5.1 0 0180.2 87.09l-1.733-3.002a5.1 5.1 0 011.866-6.967l3.022-1.744zM53.318 53.771l5.588 3.226a5.1 5.1 0 011.867 6.967L57.56 69.53a5.1 5.1 0 01-6.967 1.867l-5.588-3.227a5.1 5.1 0 01-1.867-6.966l3.213-5.565a5.1 5.1 0 016.967-1.867zm6.869-22.809l.746.43a5.1 5.1 0 011.866 6.967l-.421.73a5.1 5.1 0 01-6.967 1.867l-.745-.43a5.1 5.1 0 01-1.867-6.967l.421-.73a5.1 5.1 0 016.967-1.867zm-22.244 51.25l.745.43a5.1 5.1 0 011.867 6.967l-.422.73a5.1 5.1 0 01-6.966 1.867l-.746-.43a5.1 5.1 0 01-1.867-6.967l.422-.73a5.1 5.1 0 016.967-1.867z" fill="#F89700"/></g></svg><svg y="7695" width="135" height="135" fill="none" xmlns="http://www.w3.org/2000/svg"><path fill-rule="evenodd" clip-rule="evenodd" d="M54.957 82.453c-8.868-4.422-14.924-13.304-14.924-23.54 0-14.648 12.401-26.523 27.699-26.523 15.297 0 27.698 11.875 27.698 26.523 0 9.925-5.692 18.576-14.12 23.124l-1.114 5.644c-.02.103-.043.205-.069.306 1.203.785 2.018 2.31 2.018 4.064 0 2.285-1.386 4.184-3.207 4.56 1.004.752 1.673 2.102 1.673 3.643 0 2.362-1.573 4.277-3.514 4.277H59.531c-1.94 0-3.514-1.915-3.514-4.277 0-1.558.685-2.922 1.708-3.67-1.766-.428-3.095-2.295-3.095-4.533 0-1.506.602-2.844 1.534-3.69a6.139 6.139 0 01-.176-.68l-1.031-5.228z" fill="#E5E5E5"/><path fill-rule="evenodd" clip-rule="evenodd" d="M54.956 82.454c-8.869-4.421-14.925-13.304-14.925-23.54 0-14.65 12.401-26.524 27.698-26.524 15.298 0 27.699 11.875 27.699 26.523 0 9.924-5.691 18.575-14.12 23.123l-1.113 5.645c-.611 3.097-3.54 5.349-6.957 5.349H62.944c-3.417 0-6.345-2.252-6.956-5.349l-1.032-5.227z" fill="#FFB100"/><path fill-rule="evenodd" clip-rule="evenodd" d="M58.498 87.424h19.777c2.137 0 3.87 2.072 3.87 4.627 0 2.555-1.733 4.627-3.87 4.627H58.498c-2.136 0-3.869-2.072-3.869-4.627 0-2.555 1.733-4.627 3.87-4.627z" fill="#F89700"/><path fill-rule="evenodd" clip-rule="evenodd" d="M59.53 95.978h17.566c1.94 0 3.513 1.914 3.513 4.276s-1.572 4.277-3.513 4.277H59.53c-1.94 0-3.513-1.915-3.513-4.277s1.573-4.276 3.513-4.276z" fill="#F89700"/><path opacity=".5" fill-rule="evenodd" clip-rule="evenodd" d="M55.701 60.934c3.827 0 6.929-3.018 6.929-6.74 0-3.723-3.102-6.74-6.929-6.74-3.826 0-6.928 3.017-6.928 6.74 0 3.722 3.102 6.74 6.928 6.74z" fill="#fff"/></svg></svg>